<mxfile host="app.diagrams.net" agent="Mozilla/5.0 (Windows NT 10.0; Win64; x64) AppleWebKit/537.36 (KHTML, like Gecko) Chrome/133.0.0.0 Safari/537.36" version="26.0.16">
  <diagram name="PÃ¡gina-1" id="7IaCEllKkOHrU0898QrR">
    <mxGraphModel dx="1061" dy="549" grid="1" gridSize="10" guides="1" tooltips="1" connect="1" arrows="1" fold="1" page="1" pageScale="1" pageWidth="827" pageHeight="1169" math="0" shadow="0">
      <root>
        <mxCell id="0" />
        <mxCell id="1" parent="0" />
        <mxCell id="Qi6qAqOOdJDaELW9Udjp-7" value="" style="verticalLabelPosition=bottom;verticalAlign=top;html=1;shape=mxgraph.basic.layered_rect;dx=10;outlineConnect=0;whiteSpace=wrap;rotation=-180;fillColor=#f5f5f5;strokeColor=#006600;fontColor=#333333;" vertex="1" parent="1">
          <mxGeometry x="180" y="120" width="170" height="90" as="geometry" />
        </mxCell>
        <mxCell id="Qi6qAqOOdJDaELW9Udjp-16" value="" style="edgeStyle=orthogonalEdgeStyle;rounded=0;orthogonalLoop=1;jettySize=auto;html=1;startArrow=classic;startFill=1;" edge="1" parent="1" target="Qi6qAqOOdJDaELW9Udjp-7">
          <mxGeometry relative="1" as="geometry">
            <mxPoint x="265" y="287" as="sourcePoint" />
          </mxGeometry>
        </mxCell>
        <mxCell id="Qi6qAqOOdJDaELW9Udjp-19" value="CUSTOMER" style="text;strokeColor=none;align=center;fillColor=none;html=1;verticalAlign=middle;whiteSpace=wrap;rounded=0;" vertex="1" parent="1">
          <mxGeometry x="220" y="169" width="110" height="30" as="geometry" />
        </mxCell>
        <mxCell id="Qi6qAqOOdJDaELW9Udjp-20" value="" style="shape=image;verticalLabelPosition=bottom;labelBackgroundColor=default;verticalAlign=top;aspect=fixed;imageAspect=0;image=data:image/png,iVBORw0KGgoAAAANSUhEUgAAAkkAAADfCAYAAADiIEdDAABH10lEQVR42u19CZgcRdn/4gEeHOoHyieKERA5RMFAsjszXd2TIIp4oBLOAAHCZme6e7IR5BMUAiKeqHgAAeSIisJidrqqe9ckCEH5IyJBgwG5cbnDnQtCDrL/ent6YZPs7sx0V3dX9by/56lnc+zudL1dVe+v3rOtDYFAIBAIBAKBQCAQCET66HTHv8v2dM12jV/Zrn4jHw/wcRP8vcKKX+688eAdUEoIBAKBQCBaClafcSAnRFU+BscYN1uuYaC0EAgEAoFAtARsj3yVE6Bn6xCkobG6wvTjUWoIBAKBQCAyDYuRSTbTlzdIkIbGeosVv4bSQyAQCAQCkUmUvMJ7bZcsbpIgDY0H7X7jQyhFBAKBQCAQmYPlkmNDEiR/VJhxOkoRgUAgEAhEpjClZ8pbbabPi0KS+FiCkkQgEAgEApEpnEHz23GS81QkksT05eU+Y2eUJgKBQCAQiMxg1vyO90W0IsFYZfWR/VCaCAQCgUAgMoPuqvEeTnJei0qSbEfbB6WJQCAQCAQiM5i2yHgHJzl3RSRJzwHZQmkiEAgEAoHIDgbbtrI9Y040kkTmoyARCAQCgUBkDpZX/CwnOxvCkiTLNQ5HKSIQCAQCgcgcoKFtxdWvDWtFmtXT8U6UIgKBQCAQiEyie772v7an39ucBUl/pOIZn0DpIRAIBAKByDTMvsKetku8BknSbSbTPo1SQyAQCAQC0RIA15vlGl020+8cxXr0L4vps05zjR1RWggEAoFAIFoOtaa3xU9ZrPg1yzOmVhg5suIVx5u9k/8HpYNAIBAIBAKBQCAQCAQCgUAgEAgEAoFAIBAIBAKBQCAQCAQCgUAgEAgEAoFAIBAIBAKBQCAQCAQCgUAgEAgEAoFAIBAIBAKBQCAQCAQCgUAgEIgmMaun432Wa+xlOtp0m2nnWUy/1qbEsRy9ikPM8OUJcgX5VvOngLyh/QCuPrGY3bPP1nw9v9Pun7j9SGPaIuMd8D1tg21byfTc0Ldr6BnPoPntOhePf3vsslpkvO30BYe8eyad/IGZfcWJFU8vWq5+Ev9q87Vatr3iYbana9BtHp7J7j90G9nfPzzjcDnG9cywhoa/Mxiw7kT+/trzT9y+3GNsG8d6mD277S1DewU+w98XMWNKz5S3wjuBdbf53hx6X0ms/dTOpzdkru1k0WK+wvTjh/bb0Ki4xPT/7JEvzaTaJztvPHiHuGUCZwGcA6ard8zsI4Q/w8dgfbe2MuFC4Yr7ANPJVSxKbrFd/VU+Xm+wCzWOaAPk/CrfCItKLGfDe4D3gRSneWIBhwiX46EV1ziXK/SruVxv5+MhPl7jY+3mg5OA/0AXdds1ruPjQiAFnLAacCiIVHINgRM1eHbbM+bwZ3p02DOv4GMRHxWzb9JHRH6kxchH+ecdbDP9Av77F/DxNB/rgjW5cYS1Cv+2gY/VfPzTl7Gnl2xmtMNBL8taMJn2adsl5/OxODjLQI6v+H9n+jnw/1E/A9YI/51frLj6D22P/D/+58eHrS14dw/zcQm807Ak3Ha0fSxPP7u2Rv11AL/7BT5u5nI/y2TFfaMTSW0nLpfjuFzmBc8Mn/EyH3fw/fA9eLei3gtcBGsE3Di6tuaIF7yjJ0bYnyuC/7vJ3xOMzADi3l01xql8ToG8gXzwOXXzNfRHPr8Hh+25erpiA5fbcv888PTzfHnM1/5X5PuBM9CX+abnwHo+HuPjR1Yf2a+lFAsw+S6aP65MCzcEQkHSkv5YC++j5BSOhZsG0p86ip7fwIIDYyGX3YuC3sFAQBp+wg+lYyya/2Cs1lt30i78FvnbBp7rfnieqLdXTgQP58r9quCAFiEvIE538PFzmxX1NC2Hlktm8+dYWed5OQkwvh2GvFT6jM8FBHygYfl4+vXNKjP+fr7Of/aZOr/7Of59Z0YgyZOC9zbWZ6zhRO+yKA11fSLOFWxAJqPqmQe5Iv8D/3rqaa6xoyrnVMUjOU44fxDIe6NAfbGEv59fVJhRiHSO9hkH8t91awOf9zSszZZQLjYlX+XK+DZ+60ZiIuGA9wLvx3K1w5EKbUYqejreyTfqV4JD9+WY38UG/xbF9D9BF3YwQ4ucCyjPwOLV6POsh9teKJkx/Xj+8/8ILB1xyWsFP7T/ArICl0mSlriA+DXxrMaFjRJLk+qfCSw6r4SUy62NKnX+vVc0PY8mCZ/vPq1PJoePBbPmd7yvmfXGCeuxASlYFdNae5Sv6e/ISpbAnV9hxS/z57wx9nOqZmFaAO6xUASuZs1r5vPOye7Nm5GPWqxwrSWWzeKIacB78t8Xf2+tTo6GrCAN3njiGs9UXHIpKM2ofno4RMHKEOIZVvlunEbdT28q+GRl5en3gqKEmJPYL32u/o2Qz3jWmOela+wVWC4EyIT8sl5clB//Fe6cOKNRogQuE/4zy0J8Dmskrsu3UNUuMEmttWX++++fuL00RgiXHAKXhRTOp/UVz/i12VfYs3F3q74kxOe8BkQ7c0qmi0482nK1h5F8qDdMRh6a4bQf1aoEye6ftHvF1a+V672QP/Nb2Ilh3aK+NSysVYcroXokDW7+vsuwFuORqpwgDiO2ix8nMvxzngr5fKu6vcJuo9ywT+Qk6r8CZbF6rHioCsvvGuHzXhxtHiNYYXtCfsbGsayYftB1bb2tSWmt3QxuozTPKXgH/Dl+E7O1thHS/AhYjutbFMn/Rficm2QippFjj8xq4fz0D0scUeOVLKp9p9VilWzXOIJv+iclfSdgkb0PAkshK6jROUGGCp9Tb0Tyccio1iM/eDkF69EYbjgw0ceRJQPWoIjP9qPNY5v8GJoYklcsZnxzdLeHbkd0udR1gUByQ6S4IKbfCfpky99b/HiTbuO4xkt8X5yQkvXohKbdVvEnBV0y2p4DPRIE6w+GJ82GkYEb+KHb8APzCiQYGXLBUe3yKQmk6Eqxfms3HVWSCv7a6E3Wt/LU4ggixK2RS0dUthBcHN6yEve4ETLDhLlga4SGRbx1/wtcn8OsITfEaFXzRspe9TOMXTI/4jz+Uz/+JCIRc/X1m2dZVtzi5CCLVJY1tiFKQHvT1qOq8R4/aUHekI2+kZJP/KSXiBavCjNOV1rBAIMEhYrEIpPutzlZr10BcRZB4LRK72YZxAA16CKKrHC3IJWMzKjdpqWW0cOQ8SQkhKA39/6QMRWbZEwNBf/yP8+Nee5LRtq3fp0lV18a8Xe/XC+I2XaNX0W1nFouOWqT+CNXf07KdcYvWPEbIbSdIKlD+nOJ6XduHqfkl2KIbi29XG0l45AfI6HI7igz8t3sWpD0krLvxtP/W684KLjKBHzWQyPITJWEjJUiAj/9Wk+1+k5RnuU5qEkEaeUJzPuekQLZ/aKC0cneynq1kyqefnF0y4TRVYuhMgoJZJdGsnpZnj4lrjPKdzEy/d8KnU13Da8zBbKJfAn19N8rq2SmVw+aikQi++PU6kFHZo8g+XVVVivtEvWMMQms5RU/K+BzHnsz6NdPNX5VMTm9XHHJ5wWQpGciPscTXOFPTyie5LYh114cJAnIXsyWpEHIWPSDzCEWT/419gRUiY8lWcDT71XvbCK3DJVyEEKSXON3SiqZskM+bDPjeSQRrTCMx6EYYVYIEsxFgLKQwZp070gBroJJ0oAfpA0VfF1d1f3+UjPlDOIiSUkFHUNhxpFS9RUiSev5HGbZHnEUIgbzhbvYXP1uhc+nahDv+dWWJUkW1S9D8tBKgdwjB/CqCL/NQzbeyxNjtRERRJLuh+KWih/YMJ613eKnUiRJSbkoN0KRzREvB+qQpHV+5Xf11tipouJ8g+KQql+uv+23QYqcFKMgSepiuUkxVjjFIWl8R5nmi6oTpCCNeGVG3skLFa84PmaS9HS8mViJBpb+O0wfKkEkKbHg2dFi1VRyt6lq2Y1cmbtW1T0rl7iXg95xr7QUSYKNZlLNRdLQktluLPGmrKKtSJ7+U6FBm7XaSjfA74XUZ+io7XfVhsadfHMHLhY4JNbHkHb75FhuUEEkKWuK7OoMk6TV8M7HOruRJMVrxYMzIJKHphbDk7VagxtbiiRZVW1qHAXQcCgxNlgOOVbZWKT5He8TVDDyRSjLDzVAZtepJQUxQ36NE0/XgoKEYEZ/XEzsCfl7AoHb0d1cTL8TYhT8Oi+1zuwn2B45zfLIjyFzJWgv8WhSz9RIlWAFSdLLEBhe74KLJCl+a2W9rNOxYiUTLGj7oF/N2jUuhDY1UOWc78OT4Stf76dA0VB/b7pkcfrlFxQiSSfT/HZcePciWWjhwYylzVR9liqjzSXHRfaPc4UO5CjKc0AKNdQaCkzRa8Nbkmpp0hKSpI214ouGNZPpBzXSi6tMjT342XIMFK+sxQ/F+nxPNdNEWH6SZFzXSNPRTJMkT78XWqEA8YbaZ0PDv5h4xhz+Pf0JVqr+YriMW/3q2CuFgyxgn7H8ro16jmb2FSfyn+vmP78ISVK9WCSaO5c/MBKF1s50G+yiHWerSZL0qEVPb2umS3ndAM3F49/ut3DwrStNK+EF9VyfKZCkNXCg+YdqA8SoDimpiLK4jaxUjTmKkqTVUPXaL0jpkdO6+4z9x8pwzDhJgvXxI8i8LPcZO49UZXz43IEYQCBx0Fcutpha6P/YdBhArYJ9XG42iMH8UdQq9GfQ/HbwnMk31VWEJJV72/e2XPIMkgQcfB08CetBKYJUawXx1wjzXgEKKa7nq7nkyGmNFY4j8xspyZAwSforuBSFnjlQZqRGbNfF4BZZDoUKFSFJEN5wK3/v51t9ZL8o8aQZIUlPV1zjXKiEHj42sTie/x4al4t5pGKeo59Nh25Tc33FcVbrfWDNFR52w/RycpY5FUjSYNtWJivMQYKA441K3FS7dKRaLJJntUWxTNyQyGWE34iDqta3juRSAPdBo9ashEjS6/yZzmtGKTSt0Bg5UkDF6xEr+c5uoD9hmiQpaFD8xdkC+ihmgiRB/BolBwhT9i6ZGUNR2Q3N1OWyPPIlW3xrpLWwL8FaHV8SjPGJiqcvRJLkB2sXDLhJIznAMdyyYtL6cRDyuNq0CVEOw4pHTkzc8sWVkX+AeuSrYCpvNr04AZL0YlLd0Gs3fz+IVKx7sI7CT5EkLQFFO1tgk+kMkKS5It3dw573COGV5Jl+QROxkvNFk7R6QfyiAJejimtc1NokCeo2sCTYIg7lBhVbZTZWol8rahbl0DtGtRismEnSC4002RVqZYPgbsFECfqMSUaSXgeSAfEfouWnOEliI7VaEXc+kFMEW3MWNGJpDy5vIrPFX03q4jIEiIkTXFpFLZLUSfMnYrA2jtGCuGfQ3FQVCIPJjC9EU6bG0UiSNmkbcWgacwqaxIp0vT1r9k7+H0lI0mpwtcYlO4VJ0lJwQ8et6Pnn/EbgM9/VeePBOzTgsvq1WPfs2BmvcQEsnn4yQauRJAiMK7PCUiRJOEYjSWWm3R0lgFIZkuSq15YlJpIE6f2VVF2nXvEwkZlA9VwTCZGkp7iCM+KUm6IkaUNShNzun7S7wGDkx6DUx5jriuY/yL/vIYGy+nma+xKsn5AB3FIkyXS0s5AI4KhbiZvmz8w6SYJifRD8jSTJuE5knEz4OBL9RwLndUPKJOmlRuoctShJmpvoumLGD0TFbNqsqI9pRXL1rwjM3Lyrmdpf8e3L4qfE1zmTlCRZbsdeVnLFt3AoXRJAf9zsLeyZcZLk98WCuJgWJknPjdVQN0lAAC+4YQTNa2Cs9xozSVrPFfO0RGSmHklaE2fZjTHe9SsCnv31MYtKQqyvp18srmWU8QVZzh2/WncrkCQ+0SuQAOBoohL3HJkJQxAguUoEUYLidS1KkioyzQ/ai4hzuZEj0yFJxoWJEUvVSJJHnLEKRMZopRRUP2n0AGqIgxPwLoZCAf4o074M3G4PZJokzaA5ksEmezjijU9a08nyBVkJg9lX2BPiBERVsIVidjKYtxMkSQ82EoiaqDKrFeH7pyBr6PdSIEm3J9kwWjGStDHOIPYxybdHOgWdidZon+FX2hejY9fx583JdvaIvMBIR5Ls/j22KdH8TRisjaPpIG5aWDhFgniVMRTEjYLdjP8BsgSVoTNPkjyjW8Y5Qv0qQbf+P49GWGIiSeuhfUsKe0AVkvRs0q62YXFJ7SIITMUl5hiemmPiXrdpAmq6ibMmSUaSyk7hhFjaAOBohbHWqspbEgBcGzHNe5WfPuwZB8edqpwSSXpC1qD17qoxzvb0/4pQypBtlCBJuiSli4IqJOmfUfr/CYhLejhOkiQoHun1saxV6Z+35PzMkSS7R9uJL5C7UNnjCJ/pRhZ3NlkZOsHDb5JfZTleGfwTyJjfsLJ/4vZZIEkQ85BGbEhDGGzbSlT3dJNpn06IJD3bSKXvliZJTJ+X1pICt7ItoOP9mJYkV79ZwDpaFqWXX/xWXr0opuWLTCSJkm+joscRnShpUpYECArG3ZqQHCBD5n6L6ZcBOYuzt1nMJGmjzciMNokRVEveKOAwPiIJkhSmS3zrkSTys7TW0+zZbW8JeubFSZJEFES9A840WfdlQDb/kRmS1FnN7S6+vkFGUtwZudNihYsh/gSG5Wq/5P92C8pm1EW9rOQVdpNx4wopBRAufukR/vUn0IcNlK5CJOnlekXx0gZ0OYdaQwIa3p6VAEnamFZ2pFruthTdSGCdFFB9ezSSNMudtIsvx+hr6SdtksNyjWsyQ5JKND8Xg7W36E12d9kpfHGkitLdVeM9lqN91nLIApTVCO1KWOEqWa1JnLD0pSyjB6AdATSv7XTHv0tmksRl9aTMt1UA9PQCq130y5B+WQIk6Z605KkSSQLrYKpeFQFFJUcjSbVmzdFrMVmePkV2kgRkNxMkqYvlJgmpIZMllxHTrwYi1JBplmpnJxDrotpYUab5opS3mz6yHyh/CWT0Gh/3QYAjFDOEtSSdJYnpf2pTABUvehPuiqu7cZMkyyWz05KRSiQpqS72Y7jDfhQXSbJY8WsCmuluTDo7MtS+hNjMyIlgKZMkuMlaruahUh92kFEyt9m0StP147leR/kNJ5qEyZieGhzkRwiqrCssM9D29N9DsKNcJCm92JCm3qeA4G2wMMZMkjZatJhHktTaJClI/4+qKzZA0Ub5Ly/GJ6K7FlMmSVZVm4rKfThB0u85OcTig/pAJiU3oQw3a07pkGPlNQWTEwJrzqBkZOl6CPaWgiR5+nlKWJJc41wRda/iJEkQl5ZmTS0kSZJYklxylACd+2K5x9hW9n0J3hj+rC8oS5KADHBWey8q82Gjqk0LK88y9VMe16McN2lXslTmzRxUhl0toexegaDHKL3ixJAkcrIaJEn/uoj4q5gtSTekWUoBSZIcJKni6bbKdaRCyHKZsiSpxDrOw2DtTaxID4xWUK5htxvTbkVZbhbE7eTPkXkTczJicAX5L0ll+HjYIFZBJOmrSpAkZpwuQtaxWpI88uM0ZYQkSRJ3m5Aii2SxQiTpWSVJUrm3fW/LJc+gEt+kvs/vIP0zovvybJTlFsGqT8J6k5oocXJse8YcieV4SbMxCEiSJCNJrtGFJAlJUoXp3xGQUHEnkqQ4wYmAyQpzUIEPX9DGYKfTfkFkZesUyijPLUeZapdGJaCJkKVaVe5FkrpNb7X7jQ8lSZLANaDCQWwxfZYA+T4VI0laD1lNSJKQJNkuOS5yTJKn3wulL2Tfl5Cxy5/3OeVIUqUWO7MSlfemJKmL5s+OvLmoZqE8Ry4JYPdqepsiqDByJD/MPFtMp26R447uBgt1tlTgtojbuasvjZEkPZ92yjaSJDlIkqDAbTWy21h+V5vpy9UiSfw2zw+Uhai0RzJhFs9BkhRrcc75bQphNmQsunqHxfRfgJKTSJa0kSKUgipuX66ISX+u5CUAXkir0jaSJMksSWJKAKwfqcixdCRJSOHMhElSJ82fqGqwdmXYc1uxkCRdVpL0KlfUL28uAyWDuGluapuCgAOJr7mTAuvSYxJkDf4gGZJE/qwISRJRfqOKJAlJUgLutkMEWKg3QsKJ9PuyRgg3KEOS4KA3mXaPkiSJ6cu7aO7ysqPNspzisZDxU3YLP4S+ahklSetsVrjedIhpuuTzJiUEag51ubkLubJ+SFWSxNff3SrcgMZ8x/2Tdq94pBOsLHZ672KD7elaApakZ+JsnSIC0DyYP+eDAi5hFyFJQpIUN0kKCixGLzviGd0KkKQLlGpLYjraWWpmnZHfdfGFNdKcZtLJH+Dzmh69YJU8JMmi5N/lau6Q0Xo8dVWNcRbVfqhuFmH+zLaMAHzucKPzixl6fs2xJItT3pQASVph9RkHyvwOOPH+NBTXk7zBLZIkJEk1bw6/dAhqyHy1AhZepgxJstyOvSxXf0Kx1PFVXTTfUDfoEs1/3GQRm1zKQZJubbRWU9nJHcFl9LRqLji+Dh83ewt7tmUMUCjQdoufspjxTYvpf0mgP9xr0BspZpIEZQBOk1nuYFUWJM8vIklCkhQ3SQp+//0C1uvdMme4dfPLvBhLe0IkqUKNXyvmmnm87OYOaepG2at3RKrumTJJsih5GsheM593cu8BXCmTO1RzoVp05I7rWcJMqn0SauNAk9gYSwpcPlpjXGEkydWrnYvHv11KYgopxgL6tgV1jPZCkoQkKRmSZFwnYM2ulDkuSUw8UkIkaQbNEQlTmUd3x7jarSbL7xtmrp1Ox09DW1ZSJkkm1b4R6jP7tZ046ehXjASv6WT5QlsLAJRTd5+xP1Rcjl6if8t6KbPcSbvETJJeAJeWlK62vkkf4c/3qIgaSeU+Y2ckSUiSEiFJni4o9IWcL+3lxdVvEKQr4iVJdv8e25Ro/iZVLA2mS27mynPXsPOdPm9iu82MF5QjSUxfXu45aOcoB6DlaperFMRdpoWF0Bi4rYUADR8tV/+eQLK0zna1CTGTJHB9z5Yz5sEvzCekrMLsUdYikiQkSaJJkqi9Ce2UZs3veJ90lxdW3Ld2NilAkspO4QRxDxt3HZ3C9aBEopHCQ7exw2a8pUiSTKrfFrUiNQQEcpJ5pUIWpbVmtXB8WwsiCDYWkbY+WPHIiXGTJD4GpDuM+X6xPfL/4r6RI0lCkiSaJAXxOi+IsSbL1zooyPwdlJ4k2T3aTnyD36VI37Q/wCYWMW8ImlWPJJErRcwdAvlUIkp83os7XWPHViRKcCGouLobW1aWWJIkXfVtLruvCJrbxrEUDZIkJEmiSZKf4VaLVRRRuuZOSBqRhiAxo50/1yolSJLlkG8pEcTLyMJpV4uL0leRJFlU+72o+YMLSyXXGyfImSkJEIYoQTuMOFKBhZMkV18hS2xS540H7+B3Qhczr/tHi+tCkoQkKQ6SFJD8M8VdYOSomQSXdGHkL26S1FnN7R69+24i6eC3m325jwhb3Iq62yyqPyCyASzcVLhsexSJT1pWarAfWRZRYfrx0Q5j/aqESBKMBeUeY9v0zfnGtwW0dhhaf9eNfelCkoQkSTxJCiwuLwnal89afWQ/CfalJT5JLCaSVKL5udIHazPjoWZT3uuSA6d9opKB266+zqJ5oUX7fCsF1f+qRLsSVriqZUmSSz7mNwAOn7p+TYIkadDyjO+mKS+T6p8ReRBbLjkWSRKSpKRJkh9T5+q3Ctyb/WAkSO8cK06GFlox6AfxJKmL5SaJ9QnG4mJbDs8peu4zqh0XqVoCwKL6XNHyKNOOPUyqqVBEdEWZ5otxbmKoHB20E6nAgIDnyiiV3BN1uXmF3SIq4UuSJEmBi6+UivLiCtpy9UcEzuXRerGQSJKQJMVCkuBzPHKaYELxq9E6NcR7tpL94mvRJJgk1dwsmid7o9qS0z5dPCEwPseJTvj2BOlX3F5pOoWviJbL9Gq7UYlgqUgsNokRJip4fzOLGmSSXDmK+xkI5JWNVjmP5YCpKeFl4S8cxjcTJ0nQ2ZvpxyQpJyjOKahScXONgpEkIUmKiSSd5ho7iq6dVvH0nyYqK0oOEFSrLBmSxB/4OHG++njGTEp+JlzRuAUjcgyWDG1JGHmpVM0fKtwUSvWvK1ArawM08Y3BStOIYhiAgzkOklb33Xgk52dYhV8zM1IgSYPBM39jtIrfQl1sUDKh1htPaNNsaFaMJAlJUlokKZDXhTHszZ/b/RO3j11OXvGweAmSYJJ0Ms1vx29G98isCMtM+1vUWkhbEgByopAAOEka3ALJ5UrhLNFmUy7766R3uzFjqajA4JJXeG8In3//aD284vPlk0sjKpRCSiQp+Hz9t2Cti09h+Re/p8XHVpEfN2HpQ5KEJCkWkjSTFj/Ov/+5GPbmIqj0H4d8oPAqXJCSCesRSJJKrOM8ua0FxsudvROFtaIA1+KMasf3hM1ZHpIUFNfU55a8/d4rSl4nOQd92GJC4zniCeJ28ucIOehqvYNCNY6FNFYgGXH79wMX0opIypcV902TJAVZqnxdkRNE9ngrO+TDEJQek2V82WhyQ5KEJClJkgQB3EEV/jj25jMVRr4lykIOVmPoFyeuiGuCJKnc27635ZJnZFaAlkO+KXLDW7Tw+4pIUigbSQLLGy30wyEtbPNXtWnyl4UgT3a6HXsJIEnzBLiTFlis+LWu3tz7Y4mVYvqd0Z6R/PkMmt8ubZI0vLCd5elToJ9gGJkAKbXd4qegDQr/fc/H+JwXNBkzhiQJSVI8JAk+r9/4EP+ZB2Lcmw9C0gpYrcLIw4+d8oyDg+K3CYfziCBJnImarDBHbjcK+YeoWzls9lhcRxKSpFrWG/mXSKJUovl5Fcnjkzihvjhq3SihWVA1MvMjn3gISLMF4hW5iGTtIP7+qJ+RBkl6c9wB7ix+iz0SmtDWvfD0GQdyYjSTv7NeP1Yo3me7u5kWK0iSkCTFTZICt/IJCVh8n4Tis1B8kq/rSaNd/sAiDJm/8EwQCM6/9+8peheikySr6gctr5RY6a2BFyLEYtZjbGtS0hPT7VJKklTLYNKXQDq/EBny38MX3vOSW5RW2L2aHvGgi6Fmh76aHzT/4V+vgFgZIABQ/dlvjjoGqfOLnPZrO9nMmAbWH0H9FFdZtJiXlCQNjfV8PA7KGQgQP3h/DYc0FMCEWCb+77cFGWsvJPQ8r4NcmiO0SJKQJMVPkgK3W2+Ce3NlEHR9Nx//HD6CM26ZHJ4F/Q+RrUhcuS+QO7Vbu0JEBoxf3oAW/hCjCV5akhRYlG4/TlDGglXVzpC/4TGZL40lqU58Cx838jG34hrnQjVoy9PP9r/W3EZXBq1yVgv+3NvG2leSkCTJyo/oP2ze6ockCUlSAiSJAy5d4BrDvVq/DlzjxIHmT5Q5WJsriWUQLxV10YKrznS038UcTyE1SfLrS9GCO0VAEJ7f/JiSf0kfxE1zU0PP0dOvz/jhMWYWniCStF72wrTNtFQJk1mLJAlJUlIkCRBUrn4lI3vuueAMibIWTg/9IsGfaDLtHllJUk2p534iJI7GaT8rgaBTqUnSm6634i86L4ueRVSu5qaJ77MjliTx9X33ST0H7BTyoPtidgkSuaVeJpkgkvQgHPYZkNn9FZbfNVz8GJIkJEnJkSSfKNU6A6i+5+YGa2FjNEOLfkboF2k62lmSWwKePqWn8QDJUReMo3+FE651SJLezLri7z7yIWL377GNyQp3yB7EXXbyobIiT19wyLv5z1czSJJemtlXnFhXuQsgSeCyrN1ujYsUlhcnONqE8EH2SJKQJCVLkoJwge8pvOfu8HuHusZ1AvRyuMr+M2n+41atpYK0girR/JmR45Cq43evMP2xhNKXVSFJ0PtuhTmv/dNRn3eG036U9Jlurv6Y2VvYMxTBZvld+e+4KVMkydPPauiQFWNJGhhKmKjdDJWT1zIuLy2SshJDkl6EyupIkpAkNQpIBoHMMgXPp/+WqbFHbe/4sZhRreaHhHuJDLJr5L69df5xfKRaN1BBvOTmaWLuRIVIUlBs8q9QVTparNc+W1uxNSYUGbSuXxZFOUB/swRSy5M4gK5vtJSGSJL0xqHt6lepIis/3ZkV9ah7OmpvvaHYjJlMPygDJGkVNDONmySN1mpHJZLE5WBFfpDBtq2gGCS0bFJk3z08ZDG1XGMv/veoBo4VUB6k+ds/zRH+Al6TN4MEAm7zv4pa5wYKHyZq5VCNJIG1zin8X+R4r2pBAf+3saaT5SNVa7eZ0c5vJZ6qBInfTP/YTMsW0STJt+y6499l15oFS2/uN/vCWR+3tNpP/oCAmlYPz3In7ZI6SWL6vyOekcvLfcbOYwceR2uzA+EElkuOSpkk/UQmomd5xtQEy2SE3nPDrYy2R74qoPDkw430V9wijqRE8zdJ3qx0RRdtz0dys7Hxu1qUPJ3ocytIkvht+Vlg7FFvyhbjt27JM93KtLAQLF9RTdjBgXO/Yhak3zfbsDIOkjSkbGulDqRN87+qniJvBtMWGe/g+6wv4nMtmR1x7UYOXVg8/u1Bja4o83igAYLxjai1rKDqepqy4ufhrIhzWAfNX8USN20CX4eyZiRXN99zUG5DgKvtz023VCk7hRMEFaKL0TWi3RjZikS1S1JoqaAcSQrk/ftoLrcpby272qUKkIW1VjV8SYBNLxsTtw8OQrnJEr+5g7k9TJ2xuEjSMJf/Mb5LSx55Pcaf56RYlKZf9yrSs13eJgEC100U68jP6p+B5ICIFoQHRVS1j2Y9jNZTEYoxiiTqQ6gFQ+s/j6lQbpjxCsRIbh4CAAV2+f/dI+ByeHVzBzvUtmHkLtmVWZlqp0YKJu7NdaQSP6IqSYKCnZSQSEqgqh/K5y99bQ6+/u/sdI0dhbkg5ne8j994vp5sw8bG0/yjxNTETZJqyqT4cS6/a1OW1TpohDsULBqPZcGPS3oqbJX2Rpvpxg1wQfLneTbkPF6teMXxdS/yPca2kSxvHjlNCkJZ61MWUpcYP4j32cjn+ecsSvt8qvQZnxtRD3rGwWIs6KS5cBLLiXgLSEZwL3X2jN8hilXDomRuKu5ERUlSrao56YvSG6/WMFj24pLBXKl2puhDBwLgoa5SoPDTjve7jx8OJ8NtLJr1I36S5LswoTN4rRfd3QnLaQPEmIlqeRSbG0nAuSKW8BnfDBkT9/1GLZoVZhT4z7wc4nP+GnXdCyOUnNiGDNi/H+LYYl+PYA13ybEp7LunoI7TWO+Jf0+/ECtVM5fEzmpu9wg3gASVdZPmsc3QVe2YEMXM2aokid/cVpfDpkoOHQqO9gs1YnSMZZzU7BafSwLKBhhWEL8xkNC8XuTjVss1uiA4WoyLKBmStEm8F3/+oBnm6jjdakBm+WcZItodNRmr8ovmiIV+FcQ0tUmGiqdf3Ow86hUv3dKaQE7mP7umifP3TpGNvMUQY+OIJsne87Auk481M44IrHfPxbTnXvffj0tm1suorrDil6NW2R6Kf2vK7Vqi+bmSB2v7WW2nOhO+EuWFl2khvaJ1CpOkIE3+t1GURmlevl1ANkIy7UpY4aokDiBw4UAj21pKsE+aRDZ9fAZM+hAnEkcNnaRJ0huAfpKcsAcFKJcIktXT0A3c9vRSxSUfS0tp+t3RXf1MKOhZr+Cn/30px9aMZbEP5rGi/m1evyAs0fOr3jeWUXeDbATpjX3ESQ9cYBoJMm6kyGussVRMPwgqVPN32yPgrOK6gCzm45e+pbiBtQxdQGo/I+Lib1zTuHWF5SYp0T+J6c/PcCeGPsAg1oRvlOVIksIH+c6oU+htTPlfNv7tJiUPqWFN0ld0VQuJ3tjOoPntIB0V6oCApcnyyI/hcA/imZ4KFOdoYym/vS/kXyEhoQJm5G6vsFucVobUSNImMUuTP2Ay7dNAbuDQ89OEa/JYFQSfbj5e8f+/plgp/7nzuNyKIKuoySBClZEfi0W+HzznG++5ln1kfFtU+YFkXErk/KDr+/D1epcf5E3JAZEvGn3GzrU2G2R+oLiHPuPBCtN/C+t09iLjbTLLCQKmuTyO5HvdCay+Q3N41rdqevoUOB9keV6QJ5xVcM6A9cdi+mVBDNPAqGdUbS0zCAz35+oWP2X3a021hBJSOuGNsAr9M43Hiriap0isyA1Reop10byVavVn1UmSHzRfOC3i81+iCEkaNF2NzhLQ7FfIoTS77S1wOx9tpKHgZSBJo1kxoGZQd5+xv38QDxugtNOSVyjw59zkPauKhOYxfJ8o845HWL9DIw53r59M4pGcyYwvwID4rqhFgxs5p6K+D4uRUwR6IgYaJp1mtXC8Gi4QrqCr+bMj3Tjc/M1IkiKaKB2yNMohB+5S2duUbBK4S8lxbQilSBICgRiZqPplSWqW6eGNx9fX3H2GJculcIuzxtVPEprw0mh2ILTl8CtOqqGw1pis8IXwZt/8vlbagekZIElAqCH4PTRJYgfty+XwsirWJP6sDzVThRpJEpIkBEI2mL2T/6fBkgP3Q187WTIAwa0X1BATWbvxObAyN/QAXSz/fYVu9Y92VY1xYYXd6bRXUp9rNkjSYInWL/g26vP3T9yey2GRKiQJ1kyXk7sAj1kkSQiEigjaxfypyX15D7Q9sSPEoEbWdb6LXL8hhvZLlzb0ADOciftYLnlOmRu9S24L65/12SjV/iCBVSITJMlk2h1R/MtlCtW3lSHng3yfLCv3tu+Nxy2SJARCNQSlEkKXw4Cq1FD9vtm2RaHPFWhj5RnfrWWcCj/PV0NSRH3SAMXZ0iqoGDr9nITu0m7PMz7EX/L9SJKE1Ux6uuyR0KSh7ORPV6v5qzFoOtrVSdfMQZKEQCCioFbjSEgxyA18PAHZgpCZZvZN+ohIl5yf2s+KOtTLglpQMZ7lFzb0QGZVmyxRb5ZGrRfdoQ9zahwYvGQkSWIW2voumj8u/PsgX+KyeE0toqS/UqF6EY9dJEkIhDJ71DX2ElR4cfMB5/c/IPUfSgBUPOPomX2EQPZo93ztf09fcMi7IZZz8+H/u18bTpsARSGhOCwQI37xfiSBM/yhhkoOBFakvyimoF6352mhOx5bVT91cBBJksCinnTi+aHnwAwoKvmCYmsQrJm3qJpWjCQJgWg9BGft2oTOyJV8PB7UQ7odKuNvPuDffbISq7Vo5MQvyyNfaszV4RZOUE05wUuG7LSwC0WadhiZsSQBYdD+ENb9BI2UbUoeUHAdDpaoNhWPXiRJCIQKgIbBgjPDlByWq3+vMf9kz8E7WEy/U8FJroG+TWEWCShykzYd2Y8kqd6iY+RvkFYaZg5QEJT//J1Kbjam35FUACOSJAQCEQVQODLmPocqjBsa7ldZrhaOkSI2p/meYf8OW1beV8iU3IskSThZeNKuTto99Dxc/a+KbrgNZjV/JB6/SJIQCCX2aa0xbYsSJHILEMWGBAVVkm1H+42St3dK/h62yjM0zQv6NSFJEkuSllc84xOhNy4l1yhruqXaNZjphiQJgVABkDXWmi43TpDcSbs0LKiuavs4rqQHlJwsJU5YpdTlduwitJw5kqQ3A7iZUQitYB39YmU3H9MfNeflPtLqh2+lz/icAHk+jmoMgYh5r3q6HVOWm6xlW66zaP6DTQnplOoBkxWqrr15v7CLQ5OKefl2aVyMGSNJZZZvSZIE++hkOr7lywFAF20B8rwLVRgCkYBFySMnW67+ZMYJ0gbb088DD1IIpUROV9e9Eb6QpNmb60CSFFPtKpo/MYKC/brKm9Gkha+3+qFb7jN2jtwcm+nzUH0hEMkA3E8Vpn+H7737MkeQPP1eqL0UWjgW037fiiQJLUlxWvgK5dDzcMgMpVNKGbm21Q/cM2oNsu+LeLCdh6oLgUieLFlMLyucQDN8vGy75Hy4tEUSikX1vyBJStn64GiRSRIQEyRJkhSWbHUMtm1Vccn3I8hxo03JAaiyEIiUXHD9E7f33eaeDkaUFxU7h1/i4+fdXmE3IcKwHH0pkqS0W6vkr4hasVkmt6lZ1UrhSbvWpTZJ0v+NR2xbGydJH+PyeDZkhuRlYbNWEQiEWHRXjXG2Z3RXXN3l+/Mpic/fu2xm/EAYOXqDLLjK9crKXEyS6eq3ndLTYM2G0ciFq/dIQ5J6C18I/V4c/QLFTbxr8FgNiBIzpvtWoebkd1/T2ScIBCIZwtRn7A/72nINKNXymATn7X0VT7/YYsWvNdR/LSRJekVZhcT0K8LOu0QnflKiGhFrT6EH5sNbX/IfDEyMg5KQvo7QJIkZcxQnSavxKB1GlGopxqsajOf6e7dH9kapIRCSY7Btq67e3PuhvUnFJSZUr+YDWkot4+PVmBrnvuDHOnr69XCuAGFruCBkq5Ikk+q3hTXLQ9fhBBv81U8fp6QnNEli+k8lei/roJNz6PVI9UuQJGULftE65rcAGo0s3Q+ZNZ03HrwDSguBUBdwYffrpDGILSXnVzzj15ar9/I9fiMUcQyI1P2jjAeCZrcL+Ojn48qKq//QcslM/ucvzqTFj6dzgCnsbotCkmoVt8nTEtXY2VBy2qc3O4/pvQd+hv/sSomse89HWcxcWbrobsseOhePf3vFIzl+CyxZnvFdOEBtj/yf5elT+MH4UZQQApHhixLXt+UeY1uIF4L9PtKA/4O+n9CPVarOBSoHbvPxXOgGt4uMt1lUv102K8Sp9MCjG52DWe2YbDLtManixBj5jz3P+FB4qxi5XenAbb6f8EhEIBCIzJjH1C0BAFawkld4b/i5k8ukU7K1kgAXlP44eoT+TDr5A6ZDTJORlRIG089vuLPyZgAXKCdJ/1bakuSQP+OpgkAgEFkhSQoXk/R7ztCO0PVUoDqyxEHpj9lM+5nNjGl8tJcdkrMcchQnIbNtShbL2pajy8mFbhUDxND29P8qXXHb0a/GUwWBQCCyQpIUbksC6cX8+Y8NTZKq2mRF5vk8J00vRm71EH/zwMFOZ8Ks0Guxahh8nsuVtiRVyWl4qiAQCERGoHKD21rwNjk/7NyDgndPKx4oLNNYabra5PCEXT9J5fljg1sEAoHIGLqq7eP47X1AWeVECQ0791k9He/kc+9HciOsPtL9UWLESk7+Althws7X0qPmvNxH8FRBIBCIjABS6G1H+426ioks7ewJX1/FooXZSHBEWfW00IQVsg054b1e7ZYk2jVSpa4iEAgEIjrK1cIxsrToCBOvY1HjwLBzt2nxMJVrRckVtKxND/0e5hkfMplfUEzV+W8wq/kj8TRBIBCIjAEsMRbT71Q1eNum+qlh5z6tuv97yky7W+W4LDnqI+kv2z3he+ecMu/APBTUVHj+d0DnbDxNEAgEIovWJLdwgrpxSYVfRZl7Fy380EaSFLU+0rxI648WZqo8/xLVpuIpgkAgEBkFxFJwRfcXNW/x5PZTesI3urMcsp/NZE+vl50k5A6Lsv5MRpjCBPEWaPiIpwgCgUBkGEHdoDUKpl6/dkr1wAlR5m6p3zMszayuf86KQFLLPQftzOW/QtH5v1qhOqb9IxAIRCtYk0ymXaGisirT3BlR5j7dOfDzSHhCtlGh2jeiyL7saEcoG6zOCnMwow2BQCBaBOXe9r0tlzyjYCmAO6K4PI7rn7g9J4iLkPg0HbD8iN0fvqGtb8WjpEdNgkie6nQ79sJTA4FAIFoIJdZxnoqBzJ1Ox35R5j2jOnFqxdXXIvlpxoKnnR2JlNOOPWymP6Xe3I3BGU7+nChz764a46A3X8U1zh0a8Hf4dzyFEAgEQlKcTPPb8cP6HvVcH+TnUeZt9++xTZkWbsNyAA0HLD8UNe3dolqXBWUclLNcGkvLPca2IcnReyzXuGZsK5VxDZIlBAKBkBRWVZsqf0PVLbLcHopSqyewoum2a6xDElTfklKp6sdHkXWnO/5dNtVuVLFwZNjGyt19xv4NN/Hl3wffj6cRAvHG5eLw4ZZX+Dv8O0oHkThAgVmu5qmV5aa/3ulMmB517lxxX4IkaOxGriWWc8NaUoZQ7s0XbAXdm6arUej7F+aQ5z+/pMnMweVoUUIgORrD8sr3CD+TLkKyhEgcXSw3iS/CVWq53LSbwF0YSXk75MMW0/+DhGg0klR8qdNpnxh1ffF3pWLPwBVd1YIRZr5+zFGoAHHjGjyNEC1JkJqxvLr6AFpeEYmjRPNzVQviLguoW2Mx7WsK97OLmYjmu6PK96Q/HribevI1BmewwlWhLZT8EA/72XhLRrSgBWlcEwQJXdSIdNBZze3OF9+zailx3RUxd5MWLkRStEWwdq+IukBdTu5i9QLkjWUlr7Bb6BtxtEDxaXgaIVoJtktuCbdfyC0oPUSisBzyLcWU2UYIwI46b4g7sVjYjZrBQcnico+xc1S5nsoO2tdyybPKWdCodmboA98zuiPGgZ2LJxGiZaxIES8VlmsYKEVEcoy+R9uJk4W7VAoshlR+SOmPOneo42My7REkSfpLJZZvjyrPWo9A7XIF+wPe2ekaO4add9h4JLwdI1oRUfcLxvEhEkfZKZzAF59KqfFr4ZlFzL1z3vhP20x/rmUDtZmx6tTqQUcKWUe1jLaVislgrVXNTY100fCIgyQJgWhwv7hRLfi4XxBJL9r+PbYp0fxNKgVxW0y/p9wX3T1UU+4dnzMZWdlyJInpr4giSNA2xqZkvmrB2mVaWDilZ5+t8dBHIJIiSU2WyhghgBuliEgcM2iOcKXxmlJuEod8V9T8S9X8oTYjy1vGguQKJEggPyc/Xb12N8aaTpYv4M0YgUiUJEXeuyhFRDqLl+lXKNaAdU1n78SCqPmX5uUO4zJ4rAVcbKtPoROmiJLbKX5sF3lStYw2i+qXofsAgUCShEA0hJk0/3HL1Z9QTOHfHrXH2CYWtd4JnzKp9kBm0/xd48np7MAvi1w3FWr8Vj056I+ZvYU9kSQhEEiSEIiGYTraWarFlXTS3A9FyqDL7diFK1E3c4UiIc2f6QeJlNV0Z8IJKsqi7OS/Ke7QR5KEQCBJQrQEunpz7zeZdo9a8SXGKpsWDxMph2mLjHdwOVxgM/3VLBCkcjV3JbxbkTLqrvr1Tl5UjVTz93r3ST0H7CTu0EeShEAgSUK0DDpp/kTVgnAtpj8ynU34qGhZTHcmfp4TpXsVJkjP2UybJqKS9iZrpGf8Dlwut6snD2NwBo2W8o8kCYFAkoRoZUA6N9MXqKb8SrRwS7lnn21FiwMsMJaj/RhqACkUnLyWE8er7Gpud9HymNIz5a2mk79a0cri88Uf+kiSEAgkSYiWglUtGAoWBhy0WPEqu//QbeKQSckpHFyi+R6ZrWwV351UWNjpdhwe19ooOe1nKWpVW2H3arr4Qx9JEgKBJAnRctYkrmznqNnJXjsrLrGAFaVMC58zXXIz/6z1Es37dT5u66xOOLzcY2wb1/xNZkA9pHUqrgvLIRfDukaShEAgSUIgIqPc27635ZJnlAxUppoVp2wgxmdG74SOiqv3QNmENNxw/mcy/Xn+jrxOmjts9iLjbXHOmZPPL/PPW6Vm6QPyZKfbsVc8h36yJAkafMKAHlgjDZsZ0+D/u6vGezJj2a4z583mPS7TVn7FZYEkCZEplFjHeepVUvbHOtMlZhIyMll+3y43VynTwg2Q7ZUAYVpvemRhF83BYdiezMHsu1+fUNPNZgzOcPLnxHfox0uSoGs6X1MXhWznMAANQfk4XJUzB8hdoOSvgecP27oC5AqEAeSn6vmbRVkgSUJkCifT/HZ8k96jaAzK2qSIEsB3xfWSvbuqE483qX6lRclD/BmitnrZ6DcfZvqAScn1FtW6bEoOiNOltjm6GJnEn+F5dXvUGUvjlFdcJAmUY/TfvamyBLIlq6VF+Hw3I4syzz3LsgCiByT9DSuXGCv6ltYzz+hWmRAjFAZXyscFMS+D6HprHLN79tm6wvK7WrQwxaTamdAGo+LpCyF2yGbkXj7usxj5Dwz4M/yb5ZK/WUz/CydYc/n3n206ha9Ueo1PzI7YhDW0JZGSL/FnWqZwCYQNlkOOjfdmLJYkwUEfo4IcUjIXyeCOg2eouYf05cm5Xo1rZCRLWZMF/F7bI04Ke35AJcspIgPodMe/y3I1T2FFuQ5IiuhaQZHIh1d4r92j7dTpGjvCgD/Dv8n03suufqoAS1jKQfyEzerpeKcqJClwqyVkYdOXp6lM4OafJCEYhSBIEbeVNVlAPFSa8xmaE2pvRGLoYjlwuaxSW2Fqvzh+wSffjW+zPmbQ3PkVV1+reKXxFWWaL8au4ASQJP/WHS7mSIhVKWGLybi4LWWqEMUsysKfU8oEaRhRQosSIknXS36uokHcw9LAtQVd1fZx+DZHsxoaO1q0MFf9VizG4AxWuCoRK0B0JTfQKrduUFqyKNC0rUpZlUUQZC7LfAbwVEckp0Crud35ontWeQUKsT9O8bP4RjdzrzkdOcvV/5aNhr7GspJX2E0RkiSNcoxVTn4wstQyWJIUUcqyLGQjfhjMjUgUlkO+lQ0lqq8qO4XvxlWdWykMtm3V5XTMsFzyYkbe7SDEoCUlvqyQpDhdb5JZF1IlSlmXhYTk30DNjUgMEGBsMXJXVpSCRbVbSgnVGpLSekSNPfj7nJeV91kjSGQxuA2RJMkRx6GA1SQxotQKskCShEC3jFM4wa/dkxXFwPTl5Wr+7CxVKK6HKT37bG1VdZsTpMezpOD92ljVwvGJXhwyRpJgP4hKC/fjblSUgUecGCxILSELdLch0JrUv8c2JZq/SfUg7i2b4+pLzF7taJlKBcQB09Umlx3tbxkjR36wdpkWFk5JuKZU5kiSIJIgU5ZT2IKFotZIK8kCA7cRiDY/RZzY6qeIjzyo9ie7Sg7JWrxSuWrsD0UqVS4MWockrelk+ULil4YskiQBboosyEWUFaKVZIElABCIABVq/DqbynaILBEHmroqb/lzdM1i5DJ+cK3M8vuCiuapyDdRBej34LrozRYP/LNjU0jNNd7d1OUSZ+zNCDII29esgZicyOujBWUhRXkDLnfU0ohUYbkde1nKNj1tOD4DKk7fbLLC8SpZlsDlVKLtX7KY3sfn8FKm35F/Y9QfN3sLe2aUJA3AgT9WzFwt3kX8c4SxJvlNWYUranJLPasAWDD8iuWilXMEZdvKskiivc4oBTGvUaVHH6IFYDraWVlXwG/GLGkDVpWca9H8gdCqRbZ3Ae03wKVmOoWKxcjSoDluS7wbk+bPTEvucSqCZuNi/PYWKddOEtXE9I0O9nxOTRIT0VWsB0Jb21EWgfvNmBZng1sgjRigjZASXb2595tMuydrQdz1esFxwtRnM+0sq2oYsxcZb0vzHZQdkjOp9g2LEs9iavdaCxOszdff3bAOM0WSIrSIEO3eCZECPiBKBlEUn9AA4pDWJJTFiDKJ/AyoeRFKoZPmT2wxkrTp7Y6Rf/KvvzFp4eQy7dgjTrfc7J59tjb7ch+xHHKU5ZJf8s++g48XW1L2Q+1HaG5qmus/HpIUURGJtCg18SwiCZoIy4DALvRNxyahLJAkIRA1DLZtVWH6wtZV1JvW6eGE6TGTkh7bIT/oohOPLnl5bSbVPgmFG8HiYfdrO51B89ttLsZpVxvvgP+DQohdVWOcyYr7VhySKzv5oyyqnW26pMdi+j2ZzSoMF1w/P+3lL5okiap6Ley5migHIEoRi0q/92OCBMXlNEtUUBZIkhCIN1ChepEv3pWouLc44IJ4JrIagov5IfUP/ue/A6nkMvvt0LAd7Tf8q8v//w4+buff+7DNyMsowzHHCrtX0zNGkgZEFTWtxaOIsZY2rIQlrG0jyqLTDHlFWSBJQiC2sCaZrDAHFTeOpEaZapfCussUSRKctizKmtGI5UCYeymG1G1BsUENExaUBZIkBGILlHvb97Zc8gwqcBzxp/yTJ2G9ybDuhZGkBi02zUBYK4wGsqqEBAfHIAORpKXR1HKUBZIkBGJElFjHeS0bxI0juWBtJ3+OLGteFEkSFYu0pVKMHofSyLNBQG8aJQeSdH81mnGIskCShECMiJNpfjt+KN+LihxHjJV0l5Z7jG2zRpLi6lYuxuVWv/q27G0kRLynRoOoURZIkhCI0U3NVW1qdvuD4Uh5bLAccqxM610USYrr+QQV8FtSx71kpFGTKXk51CeLKAskSQjEmIBq1JareajQcQivrM0Ig8ri2SNJ4fukJaW063yGiNingVgvb2KecUlCn5MJWSBJQiBGQRfLTeKLeRUqdhwiU/7LNF+Uba2LIElxxZ8Aaj204lVMaVomZCKLKAskSQhEwyjR/FwM4sYhLFibFa6ScZ2nGd8hi2ISQQziClxPWkGjLJAkIRCNud2qud35gn4WFTwOASRpWckr7IYkKT2FOFaMjCBicG7870oZkpQJWSBJQiDqbQhKvo0KHkfkWCSqnSntGhcRk9Rkd/c0FNNY2XciMuhUIQb1shBRFkiSEIjGN0SPtpPFyF2o6HGEJ0hkMfSzyzJJiiv9PzGSpIA1LTGShLJAkoRANIOyUziBL+x1qPBxhGkYbFVzU6W+CGBMElpPUBZIkhCI0Juxf49tSjR/EwZx42g2WLtMCwun9OyzNZIkuUlSK8Xh1KtfhLJAkoRANI0ZNEfAKoCKH0cTJGlNJ8sXpL8ESE6SoMcWZrclp6BRFkiSEIhwm5LpV6Dix9FE+5E5SqxrIYHbxInr+ZKoiYO1gVAWSJIQiMgbs2Mvy9WfQAKAo36sg/642VvYs2VIUsjqxQ09n2d0x620sco0ygJJEgIhAKajnYUkAEf9jLb8maqsadl7tyXR4Bb7laEskCQhEALQ1Zt7f5kVlmIQN45Rg7WZdjesk1YjSXF1fbeZvjyJmCmZZSDqPTUaO4ayQJKEQIRGJ82fiCQJx6jtR6jcKf8xkqRrJHWrQHzYtAaU3xJZe9iBVSZJ4oKyQJKEQITHYNtWFaYvREKAY4tByXzVlrMokgQWH9EuFjGuNt/1M64BQnaNCBnEY00zpiUlB5QFkiQEIvoNt1oAv/0KJAY4ho0VJiWkZUmS4FIA3X3G/qLIm2xWqxCKeSDJQGWUBZIkBCKyNclkhTlIDHAMjTLVLoV10cokyb+hc3IjSBkuSdINKMqNIzqzS5TlpJnaRSiLeElSnEHtCIQ0KPe272255BkkCDj4OngS1oOK61g0SQJyE1UJCHH3hLBmiHLvibKo+WRFQOB6GPKKsoiPJMXd6xCBkAZdNHcuBnFjsHYX7Thb1TUcA0mKRJTEEqTm4qSEuZkEWdQEvpslId4DygJJEgIRDSfT/Hb8IL4XiUJLV9ZeWu4xtkWStKWrpRllAGRGKEEKmWElKOalRtAikIO0rGkoi0RI0jWoPREtA6uqTeUL/3UkDC05NlgOOVbl9RsjSXpDIYxFlmpuFD/WZCCGz276xi4q7mWIHEDF8CbdSuNExWNFjQtCWcS0X8awcMKaBSueXzCTy0tUjB8CkRpm9XS806Sai4ShBStrM8Lg/SNJalBJ8s+CoFlQAPA13s8O3z9MPGEjt9SrywOEwJeJoLgbgZYTlEU8+2VgaC8E8V9LxpIZkiWE0uhiuUl8Ma9G4tBSY2WZ5ouqr93ESFLiwfTh4z5EteZogCieG8h/ICY5RO6ph7KI0fWXoMsSgUifKNHclRjE3UrB2oXLs7Bus0mSonehF5XdleYQVo4BZfEGxPSNk7NxMAIRK8oO+XCFFZ9HAtEKo/h4l9uxC5Kk7CrEoFbQgKoyEFrYE2Ux3JJ0eKrziaFAJwKRGKZXD5qKBCL749TqQUdmZc1mjSQJr/otOi5GEUsaymJUwjgu1fl4xEFNi1AalkN+jEQiw5W1GflultZrtkiSeHIgNMMrmbEkrorOKIuhPZOmVU38GkcgEkWnO/5dFtUuR0KRyWy2OfB+s7Rea1lmmXg/A0gO4iNIKItN9sy5SJIQiCgHSf+h25hMuwKJRYaypTjxndKzz9ZZW6sCDvwlqb+fBDJ/fHIgt7tpSVI9wVpdFqm63NDdhsgKpvRMeatZLZzPF/ZaJBlKj7WcIH1n9uy2t2TSPRwxENVPEU/TupBgarSscTmQlp5009RWl0Vq1iQM3EZkDV104tGWqz2MZENJ99pDM5z2ozJv+Qyr7PjPpWxdWJI4OYBML1lS4kNUsUZZCNw3yVtRl6BGRWQSFiMftVjhWsvVNyL5UKEQob7Rf1/8vbXC+gwbl7R5JplvXUhIccAzS2CBG0jT7QJuH4mskS0ni6A0wpKsWUwRiPRu7JR8tUwLt1Ww6KSs6eOD8H4sVzu8ldZlyDo4S0b7XfG6Ivy2FoY0e9ozupMlCHLNv9VlkZA1bQAJEqJlALFKXTR/HFfGN/DFvw7JiRxxR/A+Sk7h2KzGHtU97JuLManr5oKbvdgWDvKSA58ggLsxPmXp9/mSxXKEshhlzqIJIt+PcOFI2qWMQEiB2YuMt9mUHGA6uYpF/Vo1r/LxOhKWRAbI+VWL6YtKLGfDe4D30eprEg7jMYlNiEPbv2kPKc2mY5b4voBO6IqQg+HzDeQ4EDq+ptbX7FyVLQitKAtwPUaaL/85+Pl6TYARiJbCrJ6O9/FNsZfpaNNtpp3Hlfe1XHE7lqNXcYgZvjxBriDfav4UkHfJK7wXV9/IViBQbkONR2HAoS3iRhtYmIzhv3vzz5HZYhRScRpjzdl3T9bIhKESIURZNLbWN99LI6x5I2trHhEv/j/9yIkzO21RFAAAAABJRU5ErkJgggwtOTZYDjlW5fUbI0l6QyGMRZZqbhQ/1mQghs9u+sYuKu5liBxAxfAm3UrjRMVjRY0LQlnEtF/GsHDCmgUrnl8wk8tLVIwfApEaZvV0vNOkmouEoQUrazPC4P0jSWpQSfLPgqBZUADwNd7PDt8/TDxhI7fUq8sDhMCXiaC4G4GWE5RFPPtlYGgvBPFfS8aSGZIlhNLoYrlJfDGvRuLQUmNlmeaLqq/dxEhS4sH04eM+RLXmaIAonhvIfyAmOUTuqYeyiNH1l6DLEoFInyjR3JUYxN1KwdqFy7OwbrNJkqJ3oReV3ZXmEFaOAWXxBsT0jZOzcTACESvKDvlwhRWfRwLRCqP4eJfbsQuSpOwqxKBW0ICqMhBa2BNlMdySdHiq84mhQCcCkRimVw+aigQi++PU6kFHZmXNZo0kCa/6LTouRhFLGspiVMI4LtX5eMRBTYtQGpZDfoxEIsOVtRn5bpbWa7ZIknhyIDTDK5mxJK6KziiLoT2TplVN/BpHIBJFpzv+XRbVLkdCkclstjnwfrO0XmtZZpl4PwNIDuIjSCiLTfbMuUiSEIgoB0n/oduYTLsCiUWGsqU48Z3Ss8/WWVurAg78Jam/nwQyf3xyILe7aUlSPcFaXRaputzQ3YbICqb0THmrWS2czxf2WiQZSo+1nCB9Z/bstrdk0j0cMRDVTxFP07qQYGq0rHE5kJaedNPUVpdFatYkDNxGZA1ddOLRlqs9jGRDSffaQzOc9qMyb/kMq+z4z6VsXViSODmATC9ZUuJDVLFGWQjcN8lbUZegRkVkEhYjH7VY4VrL1Tci+VChEKG+0X9f/L21wvoMG5e0eSaZb11ISHHAM0tggRtI0+0Cbh+JrJEtJ4ugNMKSrFlMEYj0buyUfLVMC7dVsOikrOnjg/B+LFc7vJXWZcg6OEtG+13xuiL8thaGNHvaM7qTJQhyzb/VZZGQNW0ACRKiZQCxSl00fxxXxjfwxb8OyYkccUfwPkpO4disxh7VPeybizGp6+aCm73YFg7ykgOfIIC7MT5l6ff5ksVyhLIYZc6iCSLfj3DhSNqljEBIgdmLjLfZlBxgOrmKRf1aNa/y8ToSlkQGyPlVi+mLSixnw3uA99HqaxIO4zGJTYhD279pDynNpmOW+L6ATuiKkIPh8w3kOBA6vqbW1+xclS0IrSgLcD1Gmi//Ofj5ek2AEYiWwqyejvfxTbGX6WjTbaadx5X3tVxxO5ajV3GIGb48Qa4g32r+FJB3ySu8F1ffyFYgUG5DjUdhwKEt4kYbWJiM4b9788+R2WIUUnEaY83Zd0/WyIShEiFEWTS21jffSyOseSNrax4RL/4//ciJMw==;" vertex="1" parent="1">
          <mxGeometry x="194" y="134" width="75" height="28.59" as="geometry" />
        </mxCell>
        <mxCell id="Qi6qAqOOdJDaELW9Udjp-26" value="" style="whiteSpace=wrap;html=1;labelBackgroundColor=none;fillColor=none;strokeColor=#331A00;" vertex="1" parent="1">
          <mxGeometry x="220" y="287" width="90" height="91" as="geometry" />
        </mxCell>
        <mxCell id="Qi6qAqOOdJDaELW9Udjp-24" value="" style="shape=image;verticalLabelPosition=bottom;labelBackgroundColor=default;verticalAlign=top;aspect=fixed;imageAspect=0;image=data:image/png,iVBORw0KGgoAAAANSUhEUgAAAZwAAAHQCAYAAACV29wuAABb5klEQVR42u29B1yc15X3rySb7GZ3s2+y++5ukt1s9p83m3f/ycYWSG6xEztxSxxXAZab3IvcLfeOJEsC1LvVAQkhCYkOAgSI3kTvVTTRe4cBhvPecyUURJlenpn5/fL5fobIzDAwzz2/59577jmLFkEQBEEQBFlaAQFu33I/dMs/unsv/k93X+fr3H2X3ObuvfS+Nb7Oy9d4O7+0xsd5leCz1T5Lvlrt47TZ3WfxbnefJYdW+zodX+3rHLjaZ3G4+xHns6u9nWNW+zjHrT7ifF58neTu45Qq/j1dPCdDfF+a+P/J7t7OieJ58eLfzrl7O0WLryNXey8JWX1k8anV3k4+4r/vE6+3Tfy7h/j57u4+zh+Kn/26+P6nxfc9LF77D+5HnZa6+17/C3fvG364NeCW7+IThCAIspLc3Rd9c/3Bm/5VGMjiNb5OfxKB/fk1Pks+EQF7y+ojS3yFKUSI/5YpAnyNMIE+YQ5T4t/IhhkTNIvfo1Cama9zgPi99rr7Oq1d4+305hrvJW5sol/5LPk/MCgIgiA9tProdf/i7rv0Rg6kYtbxvgi2u8Sdf6h4zJaB18dpwsYNxKxIk/VxKpczMWHA0ph8nF4Qj3d95b34v3bu/Plf4yqDIMhhZii8vLXGe+ndvJzk7u28nZee3H2dK8RsZQSmYWZ4xuft1MLLgJdnhE6fi39/dK3vUif3gF/+Pa5QCIJsTvv3L/n2Wp/rf8V7JXyXfXk/xLn0yhIRAr9iDcmphfeieNmObwjWHnW6fbX/kv+NKxqCIGXMWrxv+KHciOfN9yOLT7l7LykRd87jCOD2hFPblYSIHeJzfm7tYafr+aYCVz8EQWbTuiM3/GSNj5OLCELrZPaWj1MrgrHDMubu45wjroGD7r5LXlt7dMlN7gG//A5GCQRBeouzntZ6O/92jbfzB+5HFgdd3rRHoAXasuqcMmT6t4/zo8KI/gMjCYKgOfI4/usfrPFd/JC4a916OSsMy2LAJIgblSWn3X2d31h9dOn/EC36BkYbBDmYLh+IdF7G6/IiGBSIwKBGcAQW2A/q5BnzGt8lb/NeEAwIguzRYBLu+CteIpP7Lz7OF2AwQCkJCeJ69Fvj7bSCD/VipEKQrZqM33X/7u7ttFKWWPF26kdwA0o/J3Rltu3l7r30Di5NhFEMQUo2mSNLnN29nVe7H3HOQxADNj776RaPx7jyhNfhW7+H0Q1B1jYYeXp/6R2XC086NSJIATud/ai4iOoaX+dXcBgVgiwo3mi9sh+zS5YqQUDSiTW+S8nD/3e09fQfaU+ICx2KfJqOxqwk/7i3KCDhfQpK/ozC0tbQ2UxPis3eRgl5eygpfx8lFx6glMJDlFZ0hNJLfCij5ChllfpRVtlxyiw9Jv6/L6UVe1Nq0SHxfQcpqWAfJebvpbicHRSdtYki0tdRSMqXdCbxYzoZv4r8zr1B3lEv0L6wx2hH4AO08eSdtO7YzfiMdJ/5cE29WHffJS9y8gsiAgSZYzbjvXgxpy27ezs3OXrQWet7A20JuIf2hz9B/rFvUWiqO53L3iqDfm7lGSqvj6OGlgvU0V1Jg0MtNK7qJ1KPKxr1xAiNjHRSb389NXcUUk1TMhXVhAtT85PmF5mxgU4nfCjM6kXaFfQwbTh+G8znsvlEufs6P7V6/5K/RZSAICMky/H7Or0rS9Q7SBD56uhN8s7fJ+olCk7+XAbbPGEiHIDbuspoaLiNpibHFG8glmBcNUA9fXXU2JpDpbXRlF7sQ1FihnYi7h05g/I6cYcDVct2HhCPR4QJ/Q7p1hCkozg7Rzbl8nGOsNeS/Ly0xbMTvmOPz91F+VXB1NCaLWcjpFbBTEyIStUnZnoVVNEQJ5f+wtO+It/oV2jbmfvkMqNdmo/3klpudLfO9/p/Q0SBoPlmM8eW/MjdZ8mXq32WXLKXgb/51N0iuL1MZzM8KLv8JNW3ZNLwcDuMQCFMTgxLM+LZUULeXrmXtSfEVc4y7WXJTR409V56N2Y9ECS0xnfJ78XgOGPLs5mvjt0sZiyPy81x3nNgYxkd7UJQt1HUk6PU2VNFxRcjKTZ7O/mde13ePNi4AVVzYz8u44SoAzmUuLw7n64WAyDfFvdYDoQ/SZHp66mgOoTaxR0yBygEavuH989qmlIouWC/zO6zRRNy93YecvddstP98NKfIRJBdi1378XfX+Pr9JEtZZptO/0nCkz6WKYCN7Xn0+T4EIIvuErfwCUqrYuWWYKHzz5rM8tx7t5Ok7yyIMbizYhMkF1pg++N/+Tu47ThSiaNos+q7A11k7OX4osR1D/QhKAK9GJC3JBwSjqfSeIzR5wgYgOznkRe2kakgmxafCra3XuJp7ioB5U62PhMBx9OLKuLoZER7LsA08Ip7HyuiM9I8UHbdcduUXBqtVPyGh+nOxG5IJtbOmOj4fVipQ0qPptxJvEjmYrcP4gZDLBwZpyYAdW1ZFJ8zk55Vmi1zxIlGk8qn+dBJIMUrZ07f/7XnAkjjKZHOQNoiRzYfN6FDwji0CRQEnz2Kq8ykE6df488jv9WYeazONz9iNMvEdkgRYlz/Lm8hqBeKaVfjkavpAvlJ2hgsAWBDdhGOvbECF1sTpVLvJtP3aOg5AKng+6HnX6MSAdZf/lMtgRYnKmEszBc0oRTlXEGBtg+KrrUlicLqe4IvF8J5jO4xtv5Az7SgKgHWWefxmfxbmt2z+SssmMxr8r9mLHRHgQpYLdwSn5UppcSZj6l3BIEERCymNb4OD+52tu53VoXPR+85PL4fBAPwQg4WtZbbXO6rBC+wc+KFbN9nY5vOOL0z4iGkNnE9c7ExRZmjQt844k/UHTWRmrvKkfgAUBWy+6Xs/sjUc9bq1Zbp3h8FJERMv0SGicFWDz7bIms7MtnZHhDFUEGgPnp7quV+z18Y2b52Y5zADqRQiYRF/vjirOWvIA9/W+X69VdPTUIJgDoec6HE2cORqywdD+eDnfvpfchYkJGJAY432zJVGc+9c9l/LmxFoIHAMbR0lEk6wDyMQGLjGFv5ynx6OWecMdfIXpCOovP1fABztU+TuOWuFC56CG3RcahTADMU2A0OmuT5dpy+zqnrTtyw08QSSGt4t7ol/vTmP/CPBbzmjz9j6AAgPnhowNJBfss1HqbEwpQHgfSIG5J6+7jnGPui5Gr6PK5AgQBAKzQdnusj5ILDwjj+b25l9hU7t7OzyKyQnO01sd5ibhIms15AfpEvQijAUApxqPqo8T8r81+nsfd13mju/uibyLKQlJX2jybrYUA94mvakzAIAdAoZ1MuQeUOZML3H2c/ZBMAC1a47Pkz6t9nEbNdVgzt+I0kgEAsIWzPL0X6Xjsm+ac7QRzRXlEXUdNe/Z1cjVHJhrXOOM7JhTRBMD2qGw4T9vPmKtgqNM5TkxC9HU4s3G+X3z4E+aoc9baWYKBC4CNt8pOyNtDa4/eaI6WB9GoOu1ICQLezr8VH/qIqdsDpBQewvIZAHZEW1fZlc6kpt7TWeLP5/0Qje1/ZnOdu49Tn0lnNRFPUWdPFQYoAPbYGG5yVJ7fMcNsZxcish2Ly4kLs2k0ZXHNcxe2oLAmAA7Sk2f7mT+bdr/Xx/l1RGY7VECA27dWH3E+b7IMtJN3UvWlRAxEABysWkHA+fdNmUQwvtZn6a2I0HYm8cFuNtVFwmu6XJ8JAxAAxyS16JDMRjVNRQKnFu61hShtN2az5B5Tmc2p8+/Kxk8YdAA4ePp043nTFQT1do5BpLYDeR2+9Xum2rfhirOkVmGwAQAk3IF386m7TbSf4/QCIratz26OLN5viouBs1QwwAAAs+npqzNJMgFnz3IBYURtW02B9na+2RRmk1l6DAMLALAgA4PNtDPwQVNkvp5G5LbV2Y23c5LRM5t8zGwAANrp7W+gLQH3mqC69NIbEb1tbnaz9D5jP/ioTE8MJACAznR0V5Cnv7EN3pwSEMFtLw0615gP/WjMSpSpAQDoTU1TstEp02t8nO5EFLcR8UEqYz7sbWfuo5GRTgweAIBBJBfsNzJNekkIIrmtLKf5LPE3prVAY2sOBg0AwAhU5BP1kjEVpSfdfZf8B6K5wsX10riXuKEf9Fns2wAATJQuve7YLcbMdNYhois+WcDpeUM/4C0B98g+5xgsAABTwC1LjEgeKEdEV7rhHFkcZOgHnFV2HIMEAGAyxlUDtOnUXYYvrR1e+jNEdaWaTcAvvyM+pEFDPtitAX+kyfEhDBIAgEnJKPE15iDoW4jsSjUc36U3GvrBcjtZDA4AgKkZHe2mdcduRuUBexMXvzPUcHiDD4MDAGAOAhLeNzQ9uhKRXbEJA87bDflQ94a6YVAAAMxG8cVIQ5fV1FsDbvkuorsyM9SiDflQw9O+wqAAAJiNvv5GI2qrOV+H6K5ArfZ2yjLkA82tPINBAQAwK9yW3rBDoEvvQHRXZNKAc4UhHyh37sOAAACYk70hrgZWP1n8EKK7Emc4Pk6thnygKGUDADA3PlEvGnoA9GlEdwVqre8NzYZ8oHUtmRgQAACzcjBihaGVox9HdFegtgbcW2jIB3qhzB8DAgBgVrafud/QPZz7EN0VKN+Yl3MM+UCDkj7FgAAAmA31xIjBhz/X+d50G6K7AnUue0uxIR8oZ49wOXEMDACAOWhqLzA4LTo+d9sfEN0VqILqkHJDP1S+IDAwAADmIL3Yx6C4tN7vViIawQxHiWrtLK021HAS8/diYAAAzML+8McNiksHI54impzEHo4SpZ5QXdp00rBS4HxBYGAAAExNe3eFwctp4WlrheGokKWmRE1NqlpPJ3xg8Idb0RCPAQIAMCnByZ8bHJNK66JpdLTvBUR3ZRpOek7FKYM/3F3BD5N6chSDBABgErp6amiN71KD4tHaozeSaqyPOnprnkF0V6CGhjrChobbaK3vDQabTlapHwYKAMAknIh7x+BY5Bv9inyNyqa0FYjuClT5peR4/oD8Y98y+EP2OvF72TAJgwUAYAwltVFGdPp0pvyqYPk6KWXHYThK1PlinxT+gMrqYoz6oIOSP8OAAQAYDK+0GJrANH3jOzE+RFOTqskdkc+9iOiuQPmnfFE0fap325n7jDKdtKIjGDgAAP2rCkyOkrfBhTovc+7CFvlak+PDFz2CXFYiuitQXsHLh8QdwSh/UNnlJ436wHmjD20LAAD6EpXpZVTs+erYzbJhm0w6GGhIh+EoVB7BLpPDY115l+8MhmhLwL1GffAbjt8mc+gxiAAAupBZesyomMNEZ228+noXqoKSYDgKNpySxvMJ0x9WbsVpoz98rvA6NNSGwQQA0EhBdYiIGUuMijcex39LIyOdV19zX8xrTTAcBRuOb+JHFX+5CFQG96CYyY7AB6inrw6DCgAwL8UXIww+bzOT1KJDV19zXDVY7RnsSjAcBRsOf0Dig7pqOq2dJSa5EDaduku+FgYXAGAmvF9sihjD5bVmHjwva0xOgOHYgOHk1kQmzrwgzmVvNfpimN7TqW1OxyADAEiSC/abJLZwVYG2rrKrrzs1qZrYffalNhiODRjO9vBnu8UHNnw1TXFihA6EP2mSC4MzSEprozHYAHBg+IxMYNLHJokpTFL+vmtev2egMYNjGQzHBgyHqW/LvWaWw3swPEMxxcXB0+fzubtRdw0AB2RgsNlkN7CM37nXxYxm7JqfcTpzfT4Mx4YMZ9fZl9umz+RMwzMTY7NIZnIo8hnq7W/AIATAQahqTKCNJ/5gshiyI/B+Gh3tutbQRtpypuMYDMdGDOfyLKcw0VxrrlfTGP1/R8UXIzEYAbBjJieG5fkYU8aO9X6/obbO0mt+jrhJnjqa+HE5DMcGDWdb2Io+9cRYx+yLJyTlS5NeOAz3vFCp+jA4AbAzWjqK6evQR00aLzhJoPpS0pyf1dlbmzozhsFwbMhwmKSSY6lzah1NjMh1U1Obzs6gh6iuJRODFAB7mNWMD1F8zk6j2p3MzxIqqomY8/OmJke7d0e+2AHDsWHDYYbHunLnyzI5FvOqyU2H4a6j/YNNGLQA2Ch8/GF38DKzxIeFem4llPikzhe/YDg2Zji7ol9p4buHuaYzKJscmeOiWu93K6UUHpRrvxjAANhOBpoxbeq1zWwulJ+Y9+f2D7VkzRe7YDg2aDhMZM6urPnz6QfJ79wbZrrALi+zVTUmYjADoGDGVQMyoWiD321miQN8lIJrrc2fkDDazGcHYTh2ZDgLZa1N968wRyLBTLgLaQcqTwOgKPj8Cxf53RJwj9nGPh8W56aQ8/981ahf0helmuIWDMdGDccr6NGJgZG27IUuvvN5u81qOjylDkh4n9q7yjHYAbAqKiqtizbbPs3MGoyX2vIWfB8pZf7JmmIWDMeGDYfZGvbkwPj4UKWmEuPrxB2JuY3n1Pl35+TgAwDMP6MpqT1Le0JczTzGnWUqdd/ApQXfS03LhQRt8QqGY+OGw3wdtbJ5cmKsdeG8+yLadvpPZr8g2XhOxL0j8/wRDAAwH3wUorA6VBiNiwXGtTOdjH9H47m81u6KZF1iFQzHDgyHORj7dq16cqxtoQtieKTDbBls8+7xxL2FMzwAmJixsV5KKzpCWwP+aJFx/NXRmyij5KjG99Qz1JzpEeI6CcNxIMNhjpx/96IwnXZN02/OXDH9wa+F4an+hTJ/Uo2hagEAhsLFemOyNssOmpYau9wduLmjUOP74vRnr+DHx/SJUzAcOzEcaTpx79Romukwze0FMr3ZUhfudO+diPR1yGwDQI/9mcqG83Qs5jWTFunVBW5VMDbao/H9cdmajUHLJ/SNUTAcOzIcZl/Ma5cmx4drNefp91N42lqLXsTTeEe9QCW1UXIdGoEFgFmzhoEmSirYR9vO3GfxsclZaOX1cVrfY3N3eZJXiIvakPgEw7Ezw2F2Rj7XPTLSW6TtwqlryaCdgQ9axXg2n7pHLhNwUgMCDXD0BmjFFyPoaMxKk7R3NoQziR/RyEinllmXaqqkMTHB0LgEw7FTw2E2hj0+0jPQkK7LxR6bvd2iezuz2RX0MCXk7aWunhoEIOAwS2a1zWkUmrqaPP1vt9rY470aXrrT/n5VwzH5B9ONiUkwHDs2nGmKas8liItlUtsFxedoeLnLWhf+NPvDH6e0Ym8UDAV2eUDzUlsunc30FDP8u606zrhiAB8O53JY2vvnjLVpqyAAw4HhXCUkc3POfAU/54P3Vyxzbkf7uR42wOzyk7IIIYIVsMkzM5Ojslrz2QwPi6Uza+N47Jsy802nAqAjbTm7Il7oMFUsguE4gOFcTiZYeWlkpLtQtzXlQUrM3yurRCthgMiTzmHLZT+PxtacOT3TAVASfAygvD5WNjL0OnGHYsbQ/vAn5L6tbkt+qsmShoTznsGGJQfAcBzccOSHHeI6yZt+4mKa0OWiGxpqk9N/PgCmlEHD8CDm1M2imnCtG50AWILOnipKL/Yh3+iXFTdeeJ+GkxJ4SU+3SgZjTQFp6wpMHX9gOA5mONMcT/yyZHJ8tF7XwdTX30ghKV9YLYNGW6n0Q5HPyEOtnPGG2Q+wBEPDbSKIR1JY2hoZ0JU2LhhewuOD1/r0seIyNdvCnhowV+yB4Tig4TBbQp4crmvLTdQloWAaziLjZQJrZrTpcsiUD8uxATW0XJCtdREggbGMjHRRRUM8RWV60d5QN4sfxtQH3oPlvU99jEbMalpCL2zLNmfMgeE4sOFMw9kn46rBCn0GH894ItPXW6AStWmycY5EPS/3f2qaklFmB+hEb38DFdaEyQPSl4tkLlH8tb4j8AHKqQjQy2jEDae6ubssaVvYij5LxBsYjoMbjjyzE7R8gtOnxV3OkD6DcnCoVZ7h8fS/Q/GDceYSHG+eRmdtlAGFy+1gGQ5FMTmTLKXwEJ2MX0VbAu61meuZ4SXlsrpzel/H46r+Ur/kz0osFWdgODCca9h99qW2jt6LqXyiWN+WtjyF3x38iE0N1GnWHbuFDkaskPXeuGMiFy3EUpx9MjraLSuZcxVkXh6+3LRsic1ds3zjxH2oOGtT/0Onoz2Z5YEGl6eB4cBwTIp/6prisbH+EkMOtvGy1fHYNxSZYKAPvE/FTac4KGWW+sn9oOHhdgRtG+oZw7NX7oTJKf7cq8ka9clMXxLqborP3aWxGZqG5bOx+ra8hG2Rz/RYK7bAcGA487Ih0G0qrvBg+uT4cJ0hA573efgks60tT2iDy5AciHiKApM+EYHsa5luytlx2BuyDtzridse8/IoB2JeEtsV/LCiE1sMOQTN6daltdEGFb3lFQuu7rwvZmWjNWMKDAeGo9P+TlrZyWTOYjGmzDo3ZbOvIDD/3ScnKHB9rNSiw3Jdvam9QFZKwD6RoYUtB2V25MWmVMqtPEPnc3fT6YQP5T6cNWuQWSrbjE20u/eiwX+/gZGOC8eSPi5TQiyB4cBwdGZT6PLR3JrIRK6rZMzZBV6eOhD+pF0HioXW3LlCNv/uJ+LelvtFnLqdXxVMNU0pcvmH9xccqXglJ520dpZQVWMi5Qkz4bL8nP3IsxSuqbfxxB8c7jrh6h5ByZ/JJAZdD2rOazRDLVn+KZ8XKymGwHBgOHrDHf7SKwKSJ8dHG4wJOHzXynerSj00Z72A8xvaevqP8qwHz5Z4ZsgBiCs+8BJleomPCM6BcvbEQamlo5h6+urlORGeDXDtLkvtkfAyIlej6OqtkcuKXDaloiFOLm9dKD8hs75iLmyWh4b59zh89lm53MVGYut7fKZu5ewf+xYVVoeSStVnhImrpgaG2jJNVWgThgPDUc6FE+I6mVRyLHVyfLja2ODFwSouZ7vVevPYH0tkEOO7ZV522nTyLrmXtv3Mn2UrCG79vS/sMToY8ZQ0AS6Syo+cXsv/xstV/N/Z9Ph7+XwHP9/rxO+lIcIsTJCUcvRG8jv3BhVUh2jtrqlLMkB7d1Xy4fj3qpQcM2A4MByTEJy5JXdgqPWCvunUC7VJ4JkPBzoEJmBPbPC7jU6df0+aDM9IjV+WHO2pbMk4v/vsy222EitgODAck3Eo7q26S+1FSfoeIF34tHc9ZZX60bGYVxVXEBEAXdgScI/cr6u+lGiys11cGSSjIjBxc8jjQ7YWI2A4MByTw8X/0ivOJI+PD5abrOS7qk/uW4SlrraL8xTATvdjjt0sU5g5S5ETIozZ+J+1bDbS0VuTcjLlyyJbjQswHBiO+Wu1JX9a1tJdwWnVg6bctO7uq5XVDTijyd7TY4Gy98t4+ZeLevIshqtumPI659lMXs1Zqx7WhOHAcGyOLSFPDHOSweBIey4XDDR1im1ze4FsTc0px0pqegXsz2C4AgVnDZbVxZil+oS4OevgigC+CR9W2FMMgOHAcKzC7qiX2vNrohLF3VuluXrHt3eVy14gfEhQGS2zga3W2Tty9jk6d2ELldfHma3hn7gJG+oauJQWmb0r0zPEbdxexz4MB4ZjVfyTv+gXd3OqifFhs54b4UOGfEYkLmeHXGP3OP5bBFQwb4l/7iabVXZcFnE1pJSMPvQPtk6llwUMbA59aswRxjsMB4ajGE6lraW6tjyasEClZl6G47bARTUR8u7VN/oVec4EQddxKj9wpWiuiceHafnQqmUqPahoYLiVcqrDaGfk8+RoYxyGA8NRarIBlV9KoZExy5Z76R9okp0duczKmcSP5Xr9VzbQaA5oTk0+GrNS9kDiemxc7HNc1W+5ytXi5qaj9yIlFR+jreFPkSOPaxgODEfx7Ip6kTIqzlDPQKNVimDyz+QCirwkl1x4QLYs4JP5G0/eiYCuoHRk7szJbQh4xsqdL7lXjLXq042N9cnZeuiFrRjDMBwYji0TmOlJlU3pNDzaabJzDsZ0i+R6ZiW1Z2UxztBUdzoavZJ2Bj1kEy24bYlNp+6SpXdOJ3xA57K3ynptXEWa20Fbuxq3emKUOvouUlrZKU6KwTiF4cBw7JHN4U/QucKD1NhRKIO/sqoiq2RxS07Z5kZgGSW+MlByMU42JT6/gRTuy8UrOZOQu67yuSquGM1LmlyklCtpc3HQCYV1YFVPjIkZ9yUqqI0hv+RPMBZhODAcR4TXyKPz91Fta46YAXVZfQakC1zyhBvWcRFTDrDc1I2zpLhTJZ/34Kwpv3Ovy2U8LqjJlRY8/e9QXH8hLuzJPYG4QCi3YeBsQDYQnvXFZm+Tp+/ZRHhpkpe7OnuqZQM1m/iMJkaoW8yk8i6epaOJH2GswXBgOGCeBnKhj1JQlhcV18eJgFFP5k6/tjR8sp1nUVx3jrPuuJzKpbZc2bqA+8xwOSA2MG4ZwEUjOeDnVpymnIpTckmKa9VxjyI+s8SVG3jvg3vTcJ8eLpfPWXwltVEykYKXr7jVNqcLt3dXyGoP3FxuVBi7fTWYU9HIWBc1tBdSUrEffS1moxhLMBwYDjCInWdfoNiiQ1QjgmffUIu8e0V3TUdFRaOqXmoVBporzDUg/StxjTyKcQLDgeEA87Ej8jk6m7+HysSsoEvMFlSyJpYKAdmO4I39wZEOutRZTFmVQeSX/BmufRgOBMNRDr6JH8pllaqmdLkkp1L1cxkSBHCF77cMjXRSU2ep3HMJvbCFtkc8g+sZhgPBcGyTr2Neo8jcXXIZpr69gHoHm+WsyL72MpS7DMamwkkh7T1VVH4pWR6q5BnLxtDluD5hOBAMx3HYHvE0nUxbQwlFR6moLk6mbHMK7ehYrwyUU1iq03oyn82bl7/ae6upqjlDLoGF52ynA7Fv4hqD4UAwHKCvKXH5nuj8vZRZGSjv0jkrqr23RiYycEmfcdWgPO9h63tJPOtjo+XT92wivEfW3FVK1c2Z8hwLz06CMr1ovzQTN1wfMBwIhgOsm979GO2NeY2OJn4sKy2wUSWVHKfsqhA5i+K6c5x1V9+eT02dxdTWU0mdfbWyHBAbWP9QKw0Mt8uAz/sbXKWBl6TY2Bj+mv+N/xt/D38vF5nk5/YONkmTaO+pFkZRJmZsBfKcU2VTGpU2JFD+xbOUXn6K4guPUJiYhZxMdadD8aukqeKzAzAcGA4AAMBwIBgOAACGA8FwAAAAhgPDAQAAGA4EwwEAABgODAcAAGA4MBxcoAAAGA4EwwEAABgODAcAAGA4EAwHAADDgWA4AAAAw4HhAAAADAeC4QAAAAwHhgMAADAcCIYDAIDhQDAcAACA4cBwAAAAhgPBcAAAAIYDwwEAABgOBMMBAMBwIBgOAADAcGA4AAAAw4FgOAAAAMOxBXmGuJbjAgUA2BduryK6K1BeIW6puDgBAHZFiNsTiO5KNJxgt0hcoAAAuyLQ7c+I7kpcUgt2PYYLFABgT2wIcrsF0V2JM5wgt89wgQIA7CppIOKJHyC6KzJpwOUBXKAAALsxm2DXS4jsik2Lfuw/cZECAOyFPdEv5SKyK1RE9M97o1/GhQoAsAviig5XIrIr1nDGX43J34cLFQBgF7T1VHcisitUavW4f01LFi5UAIDN83XMSpqaUE0gsivWcMZKJsaHaXvEM7hgAQA2zfkibyL1OAn9GNFdgZpSq7r5A4ovPIILFgBgy+VsqGfg0hXDmXwc0V2JhjOhGuYPiD8o/sBw0QIAbJFTqV9dNhtmYuJdRHdlGs749Id0Om09LlwAgE3Ce9FXDUet8kR0V6LhTI6ppz+ktu5KzHIAADbHsaRPZ5jNOA0N9ZxAdFek4YxPzPygQrM24wIGANgUlzqKrzGcho7C84juijQc1ejMD6p3oIk2hT6GixgAYBOcSd9wjdkwVc0XQhHdFajR0b6p2R9WatlJXMgAAMWzNXwF9Q+1zjGcgoZYP0R3BWq+D0s9OUpHzr+HCxoAoGjyLp6dE7+YmNx9GxHdFaja1ryp+T6w9p5q2hi6HBc1AECR+Ce7czbaPIajIrSYVqjSSk/NazhMdnUoLmwAHISNIctp19kX6FDcKjqe/CUFZW6kiJxdFJX3NZ0rPETxRT6UWOpHKeUnKb0ikNIrA8XXp8S/Haf4Yh/5PVH5+ygidzcFZ22mE6mr6XD8e7Qn6mXaFPq4Sd8rv8+B4fZ545ZqrJ88glxWIrorUN5JH00uZDhM2IWtGIwA2LqZhC6nfedeFyawhs7m7ZWGUdqYTJe6yql3qI3GJkbI3BqfHKP+kU5q6amm8qZ0yqwKpZiCAxSQvp4Oxr1Nm8Me19kYGzsKF4xZHb01MBylyiPYZXKSL7YFPrzx8UFxl/IuBi0ANoBXiBvtj31TzjBSywOosiWLeoZaaWpKTcrXFA2MdNHFtjzKqAqmsJwdMvbMXtrnlRdNN8mc9ATDUbDhtHSXa/wAObFgT9RLGNAAKIy90a9QaPY2yr0YRc09VXIWYW+aVE9QR38DFTWcp5LGRBGTJjTGKy5EDMNRsOHEFh3S+AEynX11tD3yWQxyAKxYnPLI+fflXknZpVTqF7MBhxbP2qYmrzGg4dFO+beC4SjYcHjKqp4Y02o6zV1ltCXsSQx8ACzEjsjnKCx7u7izT6LhsT6CNBtQXVu+nPXBcBRsOHML3y1MY3uhPGyFYACAefBO+FDuv/AS2dTUFIzEAI2oBlrUavUW8eXvBd9CpFeY4ew/94ZOhsO0dJWjYRsAJoSXyjIqg2TGGGTiic/UVJswnz3iy9sF30TUV4DhMB19F3U2HU493Hn2BQQLAAyEz7ukVZym7sFmuILlzKdZmM9O8eWtiP5WNpxD8asWOLk7P1zo82DcWwgeAOhc++speZCSz6JAVjefKvHwoeBf4ARWMBxG04Gq+Rgb65Od9hBMAFgY38SPqaAullQTo4j0yjOeccEZ8eW9WHKzsOHweZupSZVepjM1OUaxBQcRWACYAZdz4VP97X11iOq2Yz714uFjwffhDhYwHCal7IRehjNNaWMiMtgAUpkjn6NkMYaGkMZsy8YzqFard4gv/xMuYWbDYXoHmwwynZ7+RrQ2AA4JZ3rm1Ubb5Wl/BzaeSfEQILgBbmFGw/n63GuknhwzyHQmxocpJn8/ghBwCLjwZFlTGs7M2L/5nBcPt8E1zGA4TETuToMMZ5q6tlx56hdBCdjrjIYrAMBoHM54YsTDjXAPExsOU1wXZ5TpjKn6KSp3DwIUsJ+CmTGvUmF9PKnlagvkwMYTLh6c4CImNByms6/WKNNhattyxB3h6whYwGbh6hrZNZGyejEEXTGdKbVafUp8+VO4iYkMh9M7B0c6jDadyYlh2atC10ZLACijx8yjskLziGoAERZayHhGhfGsE1/+HVzFSMNhtkU8TWNjvUabDtM32Eyn0zcgmAHFczJ1rezFAkE6Gg/XKVoh+AbcxQjDkYdCo1+mcdWgSUxnepkNKdRAiXwd8ypVtVxABIUMNZ5M8bAEDmOE4Vw2nZWkGus3melwVYPihnhkswHFtGiOL/LBWRrIFKYzeaVFwt/CaQw0HGbn2edpZKzHZKYzfXYnszJIntJG4APW4HD8uyiqCZnDeGrFw91wGwMNZ3pPZ3Ck3aSmw4yPD0rjQesDYMmaZ+kVgaRWI80ZMqt8BP8IwzF4+WG5bDttatOZNp6sqmDaBeMB5uyuef4D6hpoQiiELDXbEXfpdD8MxwgKamPMYjrTS20FtdHouwNMjBsllBzDmRrIKlKr1XvFw3dhOAYSU7Bf77YG+qGimpYs8k/+EsESGMWe6FeovqMYUQ+y9mynTDwshuEYXMTwHRoZ6zaj6VymradKlsvZEvYkAijQi+CszTTKqf0QpAzTEXfp9D45yrkdUxrO9Kns2tYcs5vOdLfRnJpwOhT3NoIp0MjG0OWydQAEKdR4zoqHH8BwDCQ6/2ua5Ha6FjAehltjR2TvwKwHzGF31EvU1F2JqAYp3XQuiofrYThGdD7k5S9LmQ6jUg1QUX3clb0eNwRcB+e4uA7QeROyIdMZEQ9PwXCM4FzBQVJbcLbzl5ptLZRWfhJLbg5KXJE3WghAtprFtks8fBuGY+hsJ+JZuexladOZpqP3IiWX+tOB2DcRjO3+IOdjVNyYiKgF2fpsJ4ns7aCopQxnmhOp7jQy2mU142Hae6opqdSPDsevQoC2M7ZFPEMNnSWIVpC9mA5vPv4fGI6Rh+4yuZSIFZbZ5muVkF0dRv7J7rQxZDmCto1XeEbVAMgOTadDPNwMwzGSLeFPUWVTmpkPjOqTZt1LpY2JMtuNM5sQxG0H38SPkRwA2bPpiLtzcoXhmOTk90pq6ipVhOnM3vfJqgqik6lr0KVUwZzJ8KQJvmmBIPs2nSnx8C4Mx0T4JHxA7b3VijOeyzXdhqi+PV8mHhxP/kJWGEawtz5h2duRiQY5lNRq9VoYjkkr+L5n8fM7hhQVbWwvpNSyE3QiZTVtDV8BA7AwZ/P20uWbPghyONPZAsMxMUfi36PW7gpZuFPJ5jPdubSjt4bya6MpMmfXlerWOHhqLmKLjvAiAyIP5Mims088fBOGY/I9npepujmT1Nz2V+HGMzsJoa49lzIrAyk0azMdiH0DJmQCEkuPI9pA0GXTOSYevgXDMQObw56g3JoIGudqvzZkPNeW3umnSx1FlFMdRmdzd9PRpE+wHKcHyWUnEGUg6FrTOWkzMx1bMpyZ53gic3dRz0CjzRrPbPqHWuli6wWZFReZs1MaEdeig8n8hfgiH0QXCJrfdHiN+RswHHMf9jv3GlU2pdPkxIjdmM9MRsd6ZRvvkobzlFLmT2EXtpJv4ke008Fab0fn70dUgSDNprMLhmPBWU9MwT7q7q+3iSQDU6Vqd/c3UG1bjmzDnVTiR+HZ2+lEirtMWtgW8bRdmE24mPEhGw2CdJInDMfCcKHQnOpwq9dsUwLj44PUO9Ak943KLyXLhnUpZSfoXMEBmchwMmUNHTn/nkzM4D0ypX2WQVmbhNmoEUYgSHd9DsOx4pmeikuppBrrd3jz0QWubzcy2i1NiouccoXvmpZMWfKHU7657lxGxRlpWgnFvhRbeIii8/bKmVWIMLDgzI0UlOFJZ9I30On09RSQ9pWs1MCzLq5Xx2eWTqWuFf++Tvz3DRSY4UFBmV7iuZvkciGnlMfk76P4oiNi1nYOZgNBhuklGI7V6219SFXNGbJJG8xF6UwgZECQgZqamuIBdC8MRyEcTfpYLjGNjHUjuCsRHOqEIGNNR9xZ03UwHAUeLM2uCqG+oWaHSTiA2UCQQ5jOJfHwYxiOYrtFPk5R+Xuoob0A+z7WAHs2EGRq08kXD38Pw7GFcz7RK2WzuK7+OppUQMM4mA0EQQaYTjAp4WAoDEffrLf3Kbc6nDqlAY3AJExmNmgxAEFm1icwHBvnUPwqulAVLKtaYwkOGWkQpOBZDi8h3A3DsSO2hD9Jkbk7qaIplfqHWuS5FhgKkgQgSCGm0yUefgrDsfMsuNiiQ1TVlE69g000OT4Mk8G+DQRZSzmCv4HhOBBcfic8Z5s8vc/FOYdHO8VsaAz7NhAEmV1qtXo/DAfQrqiXZJ+c/ItRsv4Zty0YVw3Z4fkg7NtAkJX1MAwHLFgN+3D8uxRTcIAKa2PkOSHuB8TtC2xynwj7NhCkhP2cH8FwgN5sDF1OPuffp+j8rymrMogqLqVQU2eJMKVLsnzPxPgwTU2qsG8DQdBM0zlHljyfA8NxvEoKB+PeoTMZ6+lc4QHKqDhNxfXxVNuaQy3dFdTVXy+X8YZHu2SaNxuVenJMeISJzGoKS2kQpDC9C8MBimRz6BNyn+lg3Nt0NPFDOpW2moKzNsqW37GFBymu4AidL/KhxOJjlFziT6llpyi9PIAyK85Qbk0EqXj5D4IgJc1yxshSRT5hOMBSlDQmYXRDkDLFqdLfguEAu+BU2joMaQhStt6H4QDbr74Q9iT1D3dgOEOQspfWhsXDz2A4wKbJronEaIYg2zCdOBgOsN3Oqomf8EWMkQxBtqPnYDjA5vAKeZQ6+usxfCHItmY53eLhn2A4wKbgqggQBNme1Gr1HhgOsBm2RzxDI6oBjFwIss1ZDlfW/R8YDkCiAARBljCdOBgOUDxchUCN1gMQZA96CIYDFM3FtjwMUwiyj1lOtXj4DgwHKJKTqWsxSiHIvrQKhgMUSXN3JYYnBNnXLKddPPwdDAcoitPpGzA6Icg+9REMByiK1t6LGJYQZJ+zHO4O+j0YDlAEgZkbMSohyL71BQwHKAA36uhvwHCEIPue5fSKh+/DcIBVCcLsBoIcRe4wHGBVmrorMAwhyDFmOdzY6m9gOMAqHEv6FKMQghxLL8NwgFWobM7E8IMgx5rl8JLGN2A4wKLsO/c6mqtBkGPqQYMMxzPIpR/BExhC7sUoDDsIcsxZTrJhhhO8LAfBE+jLtoinaXxyDCMPghxXzgYYjms8AijQv5vnQQw3CHJgqdXqffobTqBbMAIo0Jf2vjqMOAhy7GW1ftK3qKdniOtuBFCgDz4JH2G0QRDEek6/LLUgl5UIokAf8utiMcwgCOJZTrq+M5zfIIgCXdka/hSpJkYw0iAImtavdDYcr9AHv+cV8iiCKdCJs3l7MbwgCLoqtVq9TWfDEd//Q7/kzxFMgU7UdxRjhEEQNHNZrUU8fFNHwxl/JaPyDIIp0MrOsy+Ii0uNEQZB0GzdrpPhqMfHj3f21SGgApy9gSDI0GW1vboZjnqsiNTj5JPwIYIq0EhjZylGFgRB8y2rtYuHb2k3nElVCxtOUX0sgipYkN1RL6FQJwRBmnSnVsOZUqt62HAmxodoe+SzCK5gXmILD2M4QRCkaVltv3bDmVQNs+EwKWUnEFzBvDR0IjsNgiCty2qa++SoJ1Rj04ajUvXTzrPPI8CCWYc9V4i7l0mMKAiCtGmJthnOwLThMDnVYQiy4BoCMzdiGEEQpIs+12g4ExPD/TMNZ3JihA7GvYVAC2bUTjtnsqsxsOY4hiQE2e+yWppGw+kbaqGZhsM0dZaSV4gbgi2Q9I90muRiHJ0cpVvP/F9KakbxTwiyU8PhtfcfLGg4je2FcwyHiS86gmAL6FDcOya7GPcWb6JfHv9nejjydzQ5NYHRCUH2qeULGk5WZfDUfIbDadJYWgPxRT4muQIvtKfRr/1/JA2HOVS6E8MSguxQarXae0HDOZWxbnI+w2G6+xtoW/gKBF4HpqrlgtEXYH7nBbox4GdXzYZZfOLfqLwHqdYQZIfLahcXbsAW6jo5NamihUynqjldBB7s5zgqw2P9Rl18sY0R5HzyJ9eYzTT3ht5A/apejFAIsj/9cH7DCXaZ7BtsXtBwmOTS4wi+DsiB2DeNuuKOVuynXx3/l3nNZprn4pbRBF9nEATZk1wXNBw+e6PJcJizubsRhB2MyNw9Bl9t+0q2ajSamXyS/jqGJwTZkRZsysaGszd6pVbDmZoco8AMTwRiB6KwPt6giy2g2ldns5lmS/5ajFIIshNNTU1dWNBwOLj0DlzSajoT48N0IsUdwdhB6Bpo0vtCK+7Ko+tP/JvehsMcqziAkQpB9mE4fO7hbxc0nMjcnVoNZzpdOiBtHQKynbM94hm+bPS6yEYmhumPYTcaZDbM//j/q0wygCDILvS7BQ2HGVcN6mQ6XP4mOHMjArMdczzlS72vrvXZnxhsNtNwRltJdz6GKgTZvt7UaDjJJf46Gc70nk5kzi4EZ/S/kSrqypUzFGMNh/l98HXUNdqB4QpBNiy1Wn1Qo+HweZtRPheho+kwGRVncE7HDimoj9N9vVb8b3n0vSYxm2leTXwSIxaCbHsfJ1OL4bjK9Gd9DIepbE6nLWFPIlDbES091TpfWJH1gSY1m2lSW85j1EKQ7RrOEM1uyDbbcGR2Un+93qbTLgLUvnOvIVjbBW40Pjmm00XFRTi5YoA5DOfBiNvE66PxGwTZsH6u1XD2RL8i92j0NZ2xsT4kE9gB+8+9ofPVFHTR3yxmM03wxRMYshBku3pEq+FcTiA4rrfhTJNbE0GbQh9H8LZRzmR46rx3c1/YzWY1nLtCnFD6BoJsV5/pZDhMe0+VwabDS2yH499FALdB4oqO6HQlJTRFm9VspjldfRTDFoJsUGq1+pDOhrM57Am5TGao6agnRmXhz40hyxHIbYjsmkidLqYX410tYji8R4S9HAiyPU1NTcXrbDgMz1I0tS/QhdbuSvE6qxDM7agHzqXBBq2VoE3JucZwjF4Isj3DuaiX4fyl7I1xpsOznYzKM0iftgE6OEtRi3YXbbSY2TBPxz6I0QtBtmc4vAH7Lb0Mh0koPmqU4UzTP9SGTDaFMzYxovVCMneywHzU9ldhBEOQ7ek/9DYc5kJViElMh6lty6FDcW8jwCutaGfks1qvnoqeEoubDVoYQJDN6naDDEf2SKk9ZzLT4bM+BbXRtDvqJQR7hXA4/j2tV8/e4k1WMZw7Q5xkKjYEQTalJw02HJnFVBVqMtNhxscHKa38FG0NX4Ggb2VOpK7WevU8EfMnqxgOw0VCIQiyKb1tlOEwqWWnTGo6zMhoNyUWHxXG8xSCv5UIubBF45UzJG4Ofu3/I6sZzs5CTwxfCLIhqdXqr4w2nMsl7A8anTK9oPGUHMOMxwrEFGjuupnWmmg1s2Eei74XIxiCbMtw9prEcBj/lC9kQzZTmw4zOtpDyaX+tCPyOZiBhUgu01y7bF/JVqsazq/9fyg7i0IQZDMKMJnhMHujX6GRsW6zmM70Hk/exUjaf+51mIKVqwy8k/K8VQ2HudCWiiEMWUQdzbW074unjWL/l8/Q4a9eIr9N71DQvtUUF7CH8pLCqLm2jCYnJwx+bw2VBXTA/TnjWf2cfH++Xm/SqV2fUKTvRkqNOEoVeSk0PNhn9N/wmmoDpjAchot1XuooMpvpXM5qU8neO37Jn8EczERJY5LGi4dbBljbcHzK9yISQhZaDpqkkaF+GhroocbqIgo5+BVtfedBk7Hrw0cp3NuT6spyODLr/d5Ghwaot6OZKvNT6fiWVSZ9b8y2dx+m0MMbqKul3hjDKTS54cw8IGpIawN96eitoZj8fdjnMTE1rTkaLx7nkz+xuuF8mbkKkRCymkIPrdMaqKuLMmiwr1uaQUtdOVXkJlFi8CE6uOaFBZ9zVMww6svzDH5fE+MqOrJ+pcb35bPhNWlSg31dcvbG7zM5zFvMdJ7V+Lzt7z1CuYmhhhpOg9kMhzly/j0aHesxu+kwKtUA5ddGyZ8JwzCeuvbCBS+cnrFuq5sN82zcI4h6kNVUln1eq+Fcqi5ecFaSnxxBOz9wXfC5UX5baXxs1KD3lhRyWOP78vWcv9fV5MQ4pUYc0/p7ZZ4LMMRw2sxqOIxXyKNU0ZRqEdOZWST0XMEBJBkYQWNX6YIXTk1fhSIMh8vqQJC1xLMQQw1nWq31lbTn48c0znZ4hqSvchJCDDKcaV2IO6P5d1v1EDVWFeprOL1mN5yrBwlTvjSqxYEhcNYc7/UEZnjQxlC0RtCHZmHaC6mgM0cRhnPT6Z8j6kFWU1NNidGGc9W4RABf6DV4eWxEz037wrRoowyH95E4uUHTa7AZ6mk4wxYzHIaDfmVTmtEVpw0908NLbidS3OWsC6aimbbeiwvf/bSnKcJwODUagqxmOBdLTWI4rLiAvRpfh7PGptRqnd9bccY54wyHbyxTI7X+fvw30MNwJi1qONP4nH+f+odaLW460wyPdFLexbN0POULYT5uMJh56BxoVLzhMOopNSIfZPOGwzMYzlTT9FpZsactajhtjTVaf7/0KH99/2zftLjhTHO+yMdsh0V1ZUiYT0FdDJ1J3yA7m8JsLtMz2LLwdL0rF4YDwXBMaDis+NNfa3wtTjDgrDJLGc5gb5fW3y/Kb5u+f7bvWs1wmC3hT8plNnOUxjHkYGlVcwadzd1NO8++4NCG0zfcvuAVU9tfrQizue7Ej80WTPRZvoBgOKYwnJb6Cq2vdz7wgMUMZ6CnQ+v7iT6+Xd8/2z9Y1XD+UqVgJTVzZpSVTecvqKitu5IyKs6Qf/KXtCn0MYcynG4NM5zB8QFFGM5vzvxC56u8u7OD/A7spcfvvYNcfn/LnP8+PDRIJ70P0quPP0L3LPkl/eG6/6Lld/+Wtq79nFqbLi34uuMqFZ0NPk0fvPIsPXTbUvm8B29dQp++8TLlZqQZFdB6e7op0M+HPlr5PLn+4Td01+L/pjsX/19adsfNtOr5J+novl3UcqnRoNfW9vfo6eqkw7u20nMP/4nudvpv+Td52e1BOuVziFRjYwb/Tl0d7XT80D75/pfdfhPdef0vrv5O776wgvwP76OOtlaTGAL/DgG+h+Vnw78j/xyGv+afdWz/HmpraVKM4fBG/defr9B8QPSjR8Xff8QihsMZdNp+P85m01N/owjDmeZo4ofUw/sHijGev8x+alqyKLbgIB2OXyXeq33v/XT0N2i8am4+/V9WN5wHIm7Ttkkpg/7qd9+QQZPNgJkdYJPjYmTAm/7vs7nvpusoLSFu7qDOy6En/vT7BZ/H7N/qpXcgGx0Zkc/70w2/lq9x/y2L6b0XV0gTe/bhP17z+hxAPT//UJqTDpu2Ov09wgL85c9c6Hda+dgjNDjQr9fvNDExQYd2bKZ7l/5KvsZbTy+n6JBAyr+QQbERIfL3m379e5z/f9rttY6SzkXNJTaaOlpbNP4svnnYs3H91Z/1wG+c6f2XnpZ/v6cfuPua34VNfPPqT2mgr8/6hiPE1Qa0vSaf/7GE4eQkBGuuPrDqIertbLGdPRxtxUCVaDwzs954KTC28NCVw6ZuDpOlxno85o9WN5yXzy+ffwYmgiHPVlbcf9e8AXNmgOU7ak2GMc0fb/gfqqv5S2trDpIcGHV5LgdWnYNYQ93VoMiGc+aY95wZRU1FuQzYM3+G2523UkVJsVF/DzYFz88+0Ol3WvP+Wzr/TiPDw3JGM/3c3Z5fSfObLe89O3T62du++nLBn1V/sZqevO8PV28UQk740cT4+DXfU1laTK894XLNaz527+10sbLC6obDByq1vWaEj5fZDUc9Oam1WgHXgtNrmXpqasIqWWr6cDzlc+rmu22FGs/MitbVLZmynQIvwW0Je9KmDadJwzkclnvWe1Y3nPXZn8z73hrraunLd16TSzfzBdDpAHtk9za5pMPBk+/8+3t7JTybmT2TYD5/a6V8HhsIP4+XuXz27qTSgjy57FZeXCjvzHnWMfvn6bIMxa/Brzl9561pSY7Ngd/PzJ9z/y1OVFVWsuDfg83V49P5/x6TIsB88far8v+//qQrhZ46TqWF+cLEiuSy3sO/u2HO8/i/6bIXxkuC0895ZfnDGvfHPn7tBY1mwzOzo/t3z/vcS/V19Mjvbrw6SyrKzda4FPrRq9f+rId+u/SamwprGE5VQZrW1+QioOY2nISgAxqff2L7hzShGtPXcIYVbzh/WWr7SFYQsMYZHkPbZrf3VMv064icnXQo7m2bOv/T2Kk5v/50zTGrG05Ata9OF/pbzzw2J8Ae2L5JmkpZUcH8G6b9fVfvlGcuv7DZ8CPfZfOd+3wKOek3J1AmxGiuvs134bxHMv39Oz3W6DRzmD1r4X0nbctD8/092Jg54C70Pnn2NNtIt679Qut7DPY/ds1zzgZpLonCs4yZ3897R7XVlVp/ztjY6DU3Cfu3bdT6nKHBAbmHNfPnPfXnO2l4aMhqhqPLvgmj7SCooYbD+0PnTu7SuIzG2XRcr03vRJypqR6bMZxp9kS/QtXNWRYpDGqOfaAmEci5xQJnwnmff1+xyQi17QUaLx4lZKqVdBfodKFz8JltAJ++/pLcK9EkTgaY/TwOgNqWyPgO/tG7brvmebs81mp8Dm9gz9yXaW9p1ul3u5CWPOc9snlo0sHtm+c8h41LWwLCJ6+/eM1znn/kPq37Nm5XZmzT8CxEm3gWpO/yHe8PzdwD6u3WLX04Jf7cnL/FjvWrrWY4fV2tOhkOG5OxhjMxoZIFPLtaG6mmKEMWFV0oaYFTsjkjrdO4atGtNmc40/CZmdzqcHFn029zxjO7/E5H70Uqa0yipFI/CszwpP2xb1j9QGp1a7bWC+gPwYutZjZLTv2UJqd06yHCmVXXLj0tlksq2tTZ3jYnGJ0+ekSnn8kb87MNbiHxMt7MTfo3n16u10DmJbBrEgmu/wXVVi0ckHg/Z+b3816RLplhs/+O/DxNysvKmPP30+XvvnfThjn7Z7P3YWZn3E0nWDAfvvKcXn+/F13vnzOTbW5ssIrhcAsEXQyntjTbKMPRlUNrX6SSzFidMuN0MJx6mzWcmQRlbaTOvlqbWW7ThYnxYbkkx0aUVn6SwrO309HEj2l75LMW+ZsWNyRovYDWXHjfaobzSsJjOl/os5e4eD9CV01nOum6JLRQ0HxjxaMLfu/sxAV9M9siAwPmBPYtaz7TeZlL179HanzsnJ8zpqGa8WxjY3QR/41nP0+TgXrv3n7N9/K+mj4KPO475+fx52cNw1GNDutkBJX5KRYxHGbHe8vozN4vZKkbnhEZYTh5dmE40+yKeolKRKAcVw3ajfEslKDQ3FVGpY2JlFFxmqLz9tKp1K/oYNxbJquWcEHMHrUpozXZaoZzrOKAwQFZH8PhsyIzn8spw7podhB8+dGHFvzeZx+695rv5fer13md7i45q5m9Ab7Q5nz46RMG/T0Kcy7MCcy816XP0p2mmcrV6yrp/Jzncfr0QuIMs5nfGxehX78WXr6c/fN4L0zJhsPJBcYuqfH1wctqQ/091NZQJWcy3OWTDWZB83nfhWL8d1B/T7shhhNrV4YzkzMZ62VQVkIFA2vUimvtrpBZc5y0kFLmT1G5e+h0+nq5b7Qr6kWtCQxJpdoDK5eV+X3w9VYxnOahSzpf6FHBZww2HN5QN8Rw+C575vNecntg3u/jpZvZwS71fKzeg3m2aTELpfmGnz5p0N+Ds9Zm/4y+3p4Fv5+zyWZ/v7YzNPL8R3rqnOdxJqAuSQYM72vpq9nJA4ymA7/WXlKrr8g3W5Yam0nA7k81l9n50I3KshP0+t3UavUJuzWcmRWqk4r9qG+oxa6W3ExRSWF0rJd6+hupubOUaoQ5FdfHUVZVsEztLm3UbdDuLtpocbN5LPpevS503uRXquHERYbNDZipSXoHzLXvvz03My460qQzPn0Nhw9qGmIGs5fuePbG+1y6mCdTkJ2p99/vszdf0ftzMIfh9He362Q42lo9G5sWPTk5Qaf3fK71fZRkxeljOLvt3nBmwg3ZsiqDaGC4DYajjalJnS6iztF2Wnzi3yxqOKeqfezGcLg8zexAl5mcqHfA5DTv2a/Dhx6taTh84JQ3/Gd+/74tnlp/DidmzHyOpiQK3u+a/Z44WUFf8WHU2a8TExZsccPRpULztncflkth5jQcmTbe3yNL6Wjc33nfhXradS4PtNqhDGe2+WRXhdIgF6nEzGceJnQeJJY8BHrL6V/QyMSw3RjO7OQC5nxUhN4Bk2uGzX4dTg6wpuGwdmxYfc3388FWbZlq0wdQp8lIXnjphpMj5ixJxuu/JMl15Wa/Di/FWtpwOD1Z22se2/S21tcxheHIWaqWVtXM2aObdf313nRYw5nJtoinKbnUnzr76xxyz8dYw+H9lOstNMvZU7RR72CiZMP5erOHwanXmhIBGC6/Y23D4VnO7HpzmrLIuCrCzDpvG7/8WOPrc3HVOTO7k356//24msLs1+EzOpY2nJzzQVpfMznM22KGw8kE2t4P7+fwEpwOegyGMwveTA/P2UGNHYV2n+2mFT20Mc/dItWhuVK1PRkOl9+ZHeh0OcE/WxFnTs15nZL8XKsbjgzMDfXXVG3gg63zpZdz5eaZyQ98lokPj2rSoZ1b5rwnLtypr4L8j855Ha5ZZ2nDifLbqv3QZ0OVxQyHa6ptf/cRre+ps7lOl5f7DQxHC/vPvSGX3roHGmyyuoGlDIeN4HeBvzKr4fhX6X/nr3TDme+kO5+0NzZg8mn7sdERRRiO3A8YHJBGOvO5XGKHDZffO1ds5mKb/O9cD433n+Yr8DlbPIub/Z74dfXVnMOwN16n1ezMYTiHv3rJ6OU0UxoOa98XT2v9PRuri3R5qR/DcPTCTaZbl19KlokHdm9ANKVfYG8INZvZuEXdTZM6JjLYkuFwz5bZZ2h4BqBvuXzfr6/9eVyOfyFZw3C47hsX5uSq1rxkuOGT92XFZq5dtuL+u2ViAJsO719pOkw6W63NTfOWH1qozt1Cmn1miFsZaJ25mdhwutsvaX29itwkixuOth49upTaETcP/KF+A4ZjpAGdzlhHpQ2J1D/Uan/7Pwa0b3435UWTmw3vD1X2lpKhUrLhsGYX0zTk8KfXFx/p/HxLGw4fDuXGdly+p6H2IplafKh29vvidHN99NWH7+h9eNTUhpMWeUzja/ltXqXTrM+UhsMVobeuekjz7yn+++jwoDbDqVw0UzAc0xgQV7XmJbi2nkpSqQYcznD6Vb10Z4iTSQ3nUOlOowKS0g1nvrM4HKANDbrceVRTYVJLGg63ZZiu9cbtIMyh+c7ivP3s43q9xsxK09yMT5eab6Y0HA7s+zTMJPj0f3uT7mZtKsOpL8/T+jv6b3tf6+sIw4mG4ViAreEr6Gzebqq4lCIbyk2MD9ndWZzZKujMMVnW2ovxrrKigTGaXfVZr9I2szqB6lzaZlYzMU2Go1ZP0gvL/jwnaGal6LZ80tXZcU3rAK7Npk+A1tlwCvL0NpyZS1XazrUYKi6Xw0tz+pTDmZ2sMPN5nLGmi0xpOBnRJzS+DhuIPipKj9H4eke93tQtGcVno0mW+dRq9T4YjhXTsMNztlNJ/XlZdFQlK14rcDluasLgIGCKfjm/D76Ouse6jA5Is4tV/vnm63V+Ltckm/lc3uDWRbOzp5558B6N388ZZVyleOZzuPOnLvsZPHOY2TJA29357DM7vNSlUxDLzdarVA2/9+lEgOmupGzY1eWl8nm8T8UzIE0N2XQVl8OZvRf2gsufdardxodRZ7bP5mZ0uog3yk2xmc5ZZwvWL1v1kGz1rPdNX0qk1uU5nQxVy3Ja0L7VPH3R5S19CMNR2HKcT8L7sgxPVXOGzIq7vCSnsomzOPNpZ6GHUQc8y3uKTXIHPDOgTMNZU7rcOc88E8JwUU5dxA3aZj6PA6+2wHri8P4575NL1vAMaCFxl9HpitYP3rpEtljW970x2noDsZLjYuY8rzgvZ8Hv5/0aXVpGT2fVccdS7p/DRvvq48tkSwc+GMsHPzX9Da7OKmcVTJW9gT7/UOO+B7//6VbhnB2nS1uCadUUZ2k1nJpizWV22hqrF9yU51P+FXkpBl3zmTEnNb6vg2te0Ph8TnPepyVZgE1rbGRI17f0ZxiOjRgRV4GOzv+aCmpjqKmzWGbIXV6aUykqNXo+eeR8prfZ/Dn8FqobqDGJ2bCxLL/nd3MC0Zlj3lqfy98z+3l8TkRbR0iu3jx7KU7Xjez5msVxi2Ze9pkt7s75wG+cL+873H6TTi2f+b3zTGP2z9A2c2Oz/OCVZ+c8b5P7pws+h2cKnIGmq+logk2I95C07BPITqnztQbn3kazv5cTA3i2K2dfwui0nbuZrez4QK2GExewZ/7PYaCXUiOOLjizCd6/hvq62gy+7iN8vLS+t+rC9Ll7bqPDdCHujDzMqem5kb6b9O2R8xMYjh2Y0dcxr1HohS2UXn6aKpvSqLWnUpbr4UOrJsma0zM1ej5tyV+js9m8nfwcDY0PGv0z+bQ5L2vNt7Y/nXrMmUk8q+Aik9Pisij8b1xeZfYSzdXS9cLAuEIAL9V1dVwu086VhfnwJf/77ESDmY291n/8ruy/0nBxYUPlvQ6ercx8Ls+0Vj3/lDxZ7/HpB9f8XpzCOzugzglA4r1x9WYO3Av9Pfi98XLbdGkYnuHx83hPiNOWFzIDbnh28siBeUvQcNryfFlkhsBN1hZqCT77d53Z0G56BsWp4nwWiFOyZ1Y/+PKd12QTN33Ey2B7Pnlcp0Kbx7e+R+cDD8gKAdy+mTfZuR7a7O/jA5ahhzfIpSxjVJGXPO/rz1eTLfTQekoJ96WEoAMU+PWXtPN9V82/y5ZVVFeWo9f7Eebeu2i2YDj2CVfLPnL+PQrL2UapZafkvlFDe4HcO+JU7tGxHjlbWtCcptQmmWlw/5pf+/9wQaP51fF/oQMl28lU4pkCB39dmLlJzEbFhTB1hU/Rs3hfYrfXOp3RtBQls/16e2Vhz/naDkxnonHgLF6gmsBs6fq3YKZnO7y/os/zOBlh3hlfT7d8v3zuht8zGydnhfGsjM/M6GM6vC+ji/hn8hLbQjMsTpTgVHJektQp+7KnXQTlg2LGsleW7t+mLVVYR/Z/8YycjXBSwMhgn0HXeldrA8Wf3id72XivX2myxmvSBN97RBpmcpiPXP4zRMJwkmE4YN4Z087I5+lo0icUlOVFMQX7qbol22QmkNaaSDed/vm8ZhNSe4qg+cWZYHxnn52eIpug8T6DrucxrC3eG+JupzyzWmjfjJMcOIGA21w3NdTJ7p6cEZeeGC9nkbwPM3PGoss+1ewlTn49/vtx4gPPRvX9+7EZsCkYA5fyL89JlAU6m2vLZDVmU2igp4MK06JMQLR8nzxD4n47fBBVPTlp9PtTq9V7YDhAJ44lfWrSAMSJADcG/Owaw9lZ6AlXsUPxktz7Lz8jl+sqSoxLAOElQ640LatHJ53HH9e29AoMB+h4jugpk99Nz0yZ5my0MS4RBNmdeK9pOtPOFJquxWZIgzXIqroJhgN0pr2vzqRX37hadXWWw6VwIPvTzMO28WfDTfKaXD2akye45QFkG7pSQ+07MBygM7kXo0x+IT4fvwzLaXYq3o+ZTteWra5jIo1+zZZLjfK80doP3sYf2LYMZ27CAAwHaCIse7vJL8QvM1dJw/Eu24NRaWeaXTqHD3HqcrB0IXHGGWen8ZkZ3vCHbEdqtdoDhgP0Ym/0SpNfiNsK1knDOVy2G6PSzsTla+YcmH34j7I2nL77gfycJ/54hzzDZEjraMjquh+GA/RmYKTLpFfh/pJt0nB2G9AyGlK2OP15dlvpadg8dqxfLSt48xkiToPmQ5c8i+H6atUVZZQUGy2Lfk5XcOYDn1xWB7K55TS+u/hHGA7Qm7KmNJNejD7le6XhbMj5FCPTDtXe0iwPehpbXeBF1/vluRzIJg2ndNFCguEATcQUHDDpxXi88pA0nI/TX8PItNeAo1bLbDVD6qmtuP8uCj99QufKzZAi92/2wnCAQXwd86pJL8b8zmx6OvZBeifleYxM+7/TlaV8uBTQqueflLXmZtap44OhXFD0vRdXyPp3/L22UkkB0qgHYDjAYLoGmkx+RU5OTWBYOujshytXjwwPw1zs8yaDT3P/HQwHGEx2TQRGEgRBuhhO7CJNguEAbZxK+wojCYIgXfQuDAcYxabQx2kcdc8gCNKuX8JwgNHUtOZiKEEQpGk5rWGRNsFwgC6czduLEQVB0IJSq9VbYTjAJGyPeEZcUDgbAUHQgroJhgNMt6zWhmU1CILmXU6rX6SLYDhAVyJydmFkQRA033LaRhgOMCnbIp6mSfU4RhcEQbO1FIYDTE51azaGFgRBM5fTahbpKhgO0IeQC1sxwiAImrmcthaGA8x0CPQxGlENYJRBEMSzG7V4+KnOhuMZ5FKHQAr0Ias6DCMNgiA2nJhF+sgreFk6gijQh4Nxb2OkQRDEctXPcEJcoxBEgb5c6irDUIMgx57dtIuHb+tlOBtClp1AAAX6Ep6zEyMOghxYarV60yJ95RHsuhYBFOjL5rDHaVQ1iFEHQY45u+Hueb/Q33CCXN0QQIEhpFcGYuRBkGMaTvgiQ7ThjMt/I3gCQ9gV9SIqD0CQY+p2gwzH3d39myJ4dCGAAkMorI/H0IMgx5rdXFhkjDxClvkheAJDOBT3Dl+CGIUQ5DhabpTheAa5PobgCQzlYlsehiAEOcbspk48fMsow9kW/PD3PUNcRhE8gSH4p6zGSIQgx9Bbi0whj2BXHwRPgIOgEAQtMLtpFg9/YxrDCVx2AwInMJTjKV9iREKQfev1RabUhuBlWQiewFDqO4owJCHIPmc3DeLhOyY1HI8gtz8icAJDOZb0KUYmBNmnXlpkDnkGuSYgeAJkrEEQdGV2c1E8/JVZDMcr2O1GBE5gKD4JHxLO5UCQXenpReaUV9CygwiewFBKGpMwRCHIPpQj+IZZDcf97JP/4BXk0ojgCQxhd9RLND45hqEKQbavWxdZQkggAMaQVOaPoQpBNiy1Wn1ikSUlAsdOBE9gaL+cvuEOjFoIskFNTU2NiIefWNRw9u9/+dsewctSEECBIYRc2IKRC0G2ObtZs8ga2hjg9kMRPFoQQIEhNHQWY/RCkG3NbviQ598uspY4Vdoj0GUIARToy/7YN2liEk3aIMiGdN8ia8sj2PUez2AXFYIo0JfE0uMYwhBkG0tp/ouUIo8Qt+XCdNQIokAfNoYsp/a+OoxmCFL2UlqXePjnRUqSR5DL8zAdoH8Fgo/EBa3GqIYg5erpRUqU7BAa5DqBQAr04UJ1OIY0BClzdhOzSMnyCnV70CPIdQyBFOjKlrAnqXuwGaMbgpSlPsFPFyldG4Pcbt8Q7NKNYAp0xTvhQ1KrJzHEIUg5enyRrcgj1O3nHkEuFQimQOestRI/DHEIUoDUavWxRbambcEPf39DsOs5BFOgC14hbjgQCkHW37epFQ//sMgWFRDg9i3PINf1HkGuUwiqQBt7ol+h0fEhjHoIso7Z8Lr2bxbZuq4cEO1AUAXaCM7ajJEPQdaR+yJ70frAZT9Cq2qAVGkIUuTsJko8fHORPcnd3f2bXsGu73gEu4wgsIKF93MepYbOEkQBCLKM2VwUDz9YZK/aeMblv7xC3FIRXMFC7Dz7Ag2MdCEaQJB5zYZ73CxeZO/i2Y5HiMsqz2CXQQRYMB9HEz+hSfUEogIEmU8rFjmSvAKX/btXiGsAAiyYj+j8fQgJEGQGqdXq3YscVV5BbneL2U4lgiyYTXZNJKIDBJl2KS1aPPzVIkeWe4DbdzyD3N5FaRww+1BoVcsFRAkIMo3ZFJKtHu40V5UCrxCXjZ4hLqMIuGC6yGdLTzWiBQQZZzZcKfff4TLztTwIc/sPz6Blvh7BLpMIumDX2Reob7gDUQOCDDObQXKEjDRTpFHDeABzKO4dGkP5GwjS12y4bM19cBM9q1B7Brp4o9GbY3Ms6VManxxDFIEg3cxmihwt/dm0tdke+0+PENcdOMPjuJxIXU0Tk+OIJhCkXSvhGiZKLvAMcvvYI8i1GUHY8TidsQGN2yBIs96DU5hY+/e//G2vYLcVHiFuGQjEjkXIhS00NaVGWIGguVoNdzB3gkGw22KvQJf9WG5zHCJyd9PlZWoIglhqtXoz3MCSh0jPPvkPXiGur4mAlIegbP+EZW8n9RSW1yBImM16OIA1z/OEuP3aK9h1s0eISyuCs/0SmLkRxT4hR9fHiPgKEbe83hDict+GYNdTnkGuwwjS9septHU0MalC2IEcSldSn99AlFeoNsWs+DuPELflwniCUELHvjie/CWpJkYQhSBHMRteS34WUd1G5BX64Pc8Q9yeEMEqBDMf+8An4SMaHutDNILs3WxGxYMLoriNamuA23fFjOcBr6BlB4X5tCF42y5fx7xGXQNNiEqQvZoNFxa8BVHbTkS06BtegctuFsaz3jPYLdcjyHUKgdy22BbxDDV0liA6QfZmNpXi4WeI0nasDQFu/+wR7PK4R7CrD6ob2A6bQh+jksYkRCnIXswmWTz8IyKyI6ZbB7m8JRMPgl27ENyVTUr5KR6uiFiQzUqtVvuJh79G9MXy2zfWBz3yP55BLq8LAzqN/R9lcibDk8bGhxG5IFub1fABs3cQaaGFU6/D3P6/K9lvOz2D3S54BLuMI+hbn/2xb1LnQCOiGGQrZtMmHn6HiArpJXfvZ/9mQ+CyW72CXd8R5nPUI8i1BE3lrNeyurwpDdEMUrrZpIuHHyN6QiZLw94Q4nKTmAG96hniesAz0DVTGNEATMEyxBf7oAYbpNT9mt3i4duIkpDZ94M8w9z+g8vweAS5fcBZcRuCXbNRAds8+CZ+TD1DrYhwkFJmNV3i4WFEQsjq2hjg9sONIa6/9Qp2e8EryNVTBMxAjyCXIlRIMH6JrbA+HtEOsrbZxIqHHyHSQYrX5vDH/7dXqMtSj2AXF88gt3e5DbdHkGuoZ5BLvpgddeDgqnaCszbTiGoQudOQpY2GK86+J/gGIhlkF5KdUQOX/buYHd0oZkQP8b6RR7Dr2ssN68RMKXhZIicyyJTuINcJezISuS8W5FLHS5NeIa5RHiHL/IQJbxem/JFniOvT4v/f5Rnm8iuPiCd+IAb9v12504QgS5hNsXi4HhEKcmh5Brj9L48zy37mEeritDHI7XavULcHRZB+Sja2C3L7WJjVBk755rpzMoAHup0RZhYp/i3eI9A1TTa/C3Ip9QhyqRDfWyX+/0XxWC+4JL5uEY/tPPNig+PKDV5BLo2XTcGlRvx7pZiplcnlQk4pD3JNFs+J4RmbV7DLSbmvFbRsn/i+LV7Bru4eIS6reJlR/Hc3zxCXezcEud3CBuIV+tiP3QPcvmPYXho9J4JBD0IiZCajGRMPXyIxAIKgadP5V7VafQrhETKx2aSIh//GCIMgaD7jeUAEiUsIlZCRRtMvHl7FXg0EQdpM53titrNFBI1xhE5IX4lrx5/3BzGSIAjSx3h+IUwnAiEU0nFWky0efoORA0GQMcZzrwgmZQip0AJG0yIensXyGQRBpjKdvxK8eaX7IgSx0Qyr1eoN4su/xwiBIMgcxvP3gk9EsOlGyHVYoxkVRrONMxsxIiAIsoTx/IPA/Uo2EuQYRqMSRrMXCQEQBFnLeP6Rl1VgPHZvNIfElz/FFQ9BkFJmPO+J4ISOb/ZjNL3CaDwIRTYhCFKo8XBywRMiWOUhZNus0dSJh7eRDABBkC2Zzx9E8Aq60qceUr4SBY8KvoWrF4IgWzWefxV8JIynGjFdcbOZdrVa7SW+/C9cqRAE2ZPxfEPwey59cqWCMGQdk1ELosWXLoQKzhAEOYD5/C/BMyLwRaJmm0VMhpUqvnxL8GNcgRAEOar5cDO450VAjMF+j8mNJlM8vCv4Ca40CIKga83nnwRPqdVqPxEsO2EZehvMkCCULrcGwLkZCIIgHc3nm4Ibr1Q0yOS9B1jKvCZTIgx6s/jyTsF3cOVAEAQZb0DfF9wngut6TuEVgXbEAc1lgtsAXKll5opDmRAEQZYxoG9fmQGtEgH4hAjEpfa0B3Rlo/+iIFj83885w0/wd/jkIQiClGFCfy1YLHhamNCmK4kIdUo2oivG0syzNvGed4nHlwU346Q/BEGQbRoRl9z5T8EdgudEYF8jOCoC/TkuwyNo4P4uZjCTMTYTQaHgPM/ErtQne0Vwj+AXbJL4hCAIghzPmL4r+Pcrs6TbuDyP4E+Ch6+UfVkheEHwEs+iBMsFj/DekuAuwW8FS66YG2YokNT/A/6Sx7u+H/trAAAAAElFTkSuQmCC1+bwx/+3V6jLUo9gFxfPILd3uQ23R5BrqGeQS76YHXXg4Kp2grM204hqELnTkKWNhivOvif4BiIZZBeSnVEDl/27mB3dKGZED/G+kUew69rLDevETCl4WSInMsiU7iDXCXsyErkvFuRSx0uTXiGuUR4hy/yECW8XpvyRZ4jr0+L/3+UZ5vIrj4gnfiAG/b9dudOEIEuYTbF4uB4RCnJoeQa4/S+PM8t+5hHq4rQxyO12r1C3B0WQfko2tgty+1iY1QZO+ea6czKAB7qdEWYWKf4t3iPQNU02vwtyKfUIcqkQ31sl/v9F8VgvuCS+bhGP7TzzYoPjyg1eQS6Nl03BpUb8e6WYqZXJ5UJOKQ9yTRbPieEZm1ewy0m5rxW0bJ/4vi1ewa7uHiEuq3iZUfx3N88Ql3s3BLndwgbiFfrYj90D3L5j2F4aPSeCQQ9CImQmoxkTD18iMQCCoGnT+Ve1Wn0K4REysdmkiIf/xgiDIGg+43lABIlLCJWQkUbTLx5exV4NBEHaTOd7YrazRQSNcYROSF+Ja8ef9wcxkiAI0sd4fiFMJwIhFNJxVpMtHn6DkQNBkDHGc68IJmUIqdACRtMiHp7F8hkEQaYynb8SvHml+yIEsdEMq9XqDeLLv8cIgSDIHMbz94JPRLDpRsh1WKMZFUazjTMbMSIgCLKE8fyDwP1KNhLkGEajEkazFwkBEARZy3j+kZdVYDx2bzSHxJc/xRUPQZBSZjzvieCEjm/2YzS9wmg8CEU2IQhSqPFwcsETIljlIWTbrNHUiYe3kQwAQZAtmc8fRPAKutKnHlK+EgWPCr6FqxeCIFs1nn8VfCSMpxoxXXGzmXa1Wu0lvvwvXKkQBNmT8XxD8HsufXKlgjBkHZNRC6LFly6ECs4QBDmA+fwvwTMi8EWiZptFTIaVKr58S/BjXIEQBDmq+XAzuOdFQIzBfo/JjSZTPLwr+AmuNAiCoGvN558ET6nVaj8RLDthGXobzJAglC63BsC5GQiCIB3N55uCG69UNMjkvQdYyrwmUyIMerP48k7Bd3DlQBAEGW9A3xfcJ4Lrek7hFYF2xAHNZYLbAFypZeaKQ5kQBEGWMaBvX5kBrRIB+IQIxKX2tAd0ZaP/oiBY/N/POcNP8Hf45CEIgpRhQn8tWCx4WpjQpiuJCHVKNqIrxtLMszbxnneJx5cFN+OkPwRBkG0aEZfc+U/BHYLnRGBfIzgqAv05LsMjaOD+LmYwkzE2E0Gh4DzPxK7UJ3tFcI/gF2yS+IQgCIIcz5i+K/j3K7Ok27g8j+BPgoevlH1ZIXhB8BLPogTLBY/w3pLgLsFv;labelBorderColor=none;" vertex="1" parent="1">
          <mxGeometry x="231.48" y="293" width="71.04" height="80" as="geometry" />
        </mxCell>
      </root>
    </mxGraphModel>
  </diagram>
</mxfile>
